<?xml version="1.0" standalone="no"?>
<!DOCTYPE svg PUBLIC "-//W3C//DTD SVG 1.1//EN" "http://www.w3.org/Graphics/SVG/1.1/DTD/svg11.dtd" >
<svg xmlns="http://www.w3.org/2000/svg" xmlns:xlink="http://www.w3.org/1999/xlink" version="1.1">
<metadata></metadata>
<defs>
<font id="agopuscbold" horiz-adv-x="1138" >
<font-face units-per-em="2048" ascent="1507" descent="-541" />
<missing-glyph horiz-adv-x="569" />
<glyph horiz-adv-x="0" />
<glyph horiz-adv-x="682" />
<glyph unicode=" "  horiz-adv-x="569" />
<glyph unicode="&#x09;" horiz-adv-x="569" />
<glyph unicode="&#xa0;" horiz-adv-x="569" />
<glyph unicode="!" horiz-adv-x="681" d="M172 1270q0 69 50 115.5t120 46.5q77 0 121.5 -48.5t44.5 -126.5q0 -53 -51 -315q-7 -39 -21.5 -116.5t-21.5 -116.5q-37 -199 -45 -256h-58q-24 112 -60.5 317t-47.5 260q-31 155 -31 240zM176 139q0 67 50 117.5t118 50.5t118 -49.5t50 -118.5q0 -70 -49.5 -119 t-118.5 -49t-118.5 50t-49.5 118z" />
<glyph unicode="&#x22;" horiz-adv-x="681" d="M96 922v346q-6 87 10.5 125.5t69.5 38.5q90 0 78 -164v-346q6 -56 -13 -89.5t-65 -33.5q-92 0 -80 123zM430 922v346q-12 164 80 164q90 0 78 -164v-346q6 -56 -13 -89.5t-65 -33.5q-53 0 -69.5 28.5t-10.5 94.5z" />
<glyph unicode="#" d="M66 436v152h235l33 215h-211v151h233l62 406h153l-61 -406h219l59 406h154l-59 -406h190v-151h-213l-33 -215h193v-152h-215l-66 -436h-153l65 436h-221l-65 -436h-154l65 436h-210zM455 588h219l33 215h-220z" />
<glyph unicode="$" d="M76 967q0 144 77 239.5t218 141.5q59 17 125 24v164q59 -9 118 0v-164q239 -15 361 -110q-53 -113 -76 -205h-29q-28 86 -97 143.5t-159 69.5v-443q78 -17 138 -36.5t120.5 -53.5t100 -76.5t64 -106.5t24.5 -144q0 -121 -63 -220t-164 -155t-220 -64v-221q-59 12 -118 2 v219q-259 18 -408 135q4 21 24 107.5t27 134.5h39q29 -106 117.5 -180.5t200.5 -93.5v485q-79 15 -137 33.5t-114.5 49.5t-91.5 73.5t-56 106t-21 145.5zM317 1065q0 -82 47 -130t132 -73v408q-80 -9 -129.5 -65t-49.5 -140zM614 74q25 0 59 15.5t67 43t56 72.5t23 96 t-23.5 95t-57.5 70.5t-66.5 42t-57.5 17.5v-452z" />
<glyph unicode="%" horiz-adv-x="2048" d="M205 1032q0 147 103 243.5t251 96.5q89 0 165 -35.5t125.5 -108t49.5 -169.5q0 -164 -101.5 -262.5t-260.5 -98.5q-152 0 -242 91t-90 243zM410 1028q0 -32 1 -55t5 -57.5t13 -58t23.5 -46.5t38.5 -35t56 -12q29 0 52.5 11.5t38.5 29t26 44.5t16.5 51.5t9 57t4 53.5 t0.5 48q0 248 -137 248q-33 0 -59 -13t-41 -37.5t-25.5 -51t-14.5 -61.5t-5.5 -60t-1.5 -56zM598 -61l711 1482q44 -7 110 0l-712 -1482q-44 7 -109 0zM1149 305q0 147 103 243.5t251 96.5q89 0 165 -35.5t125.5 -108t49.5 -169.5q0 -164 -101.5 -262.5t-260.5 -98.5 q-152 0 -242 91t-90 243zM1354 301q0 -32 1 -55t5 -57.5t13 -58t23.5 -46.5t38.5 -35t56 -12q29 0 52.5 11.5t38.5 29t26 44.5t16.5 51.5t9 57t4 53.5t0.5 48q0 248 -137 248q-33 0 -59 -13t-41 -37.5t-25.5 -51t-14.5 -61.5t-5.5 -60t-1.5 -56z" />
<glyph unicode="&#x26;" horiz-adv-x="1478" d="M84 311q0 256 365 422q-3 5 -22 32.5t-23 33.5t-20.5 31t-21 33.5t-17 31.5t-16.5 35.5t-11.5 33.5t-10.5 37.5t-5.5 37.5t-2.5 42q0 94 56 167.5t140 110t177 36.5q60 0 117.5 -14t108 -42t81.5 -78t31 -114q0 -47 -15.5 -91.5t-39 -78.5t-60.5 -68.5t-69.5 -58 t-75.5 -51.5l22 -29l297 -360q121 142 244 389l112 -117q-144 -205 -284 -354q34 -37 129 -145t151 -167v-26q-165 10 -194 10q-30 0 -195 -10l-104 145q-86 -74 -206 -123t-228 -49q-175 0 -295 98q-115 95 -115 250zM352 408q0 -43 18.5 -92t47.5 -85q28 -35 57.5 -55.5 t75.5 -38.5q35 -14 111 -14q52 0 112.5 24t95.5 60q-175 203 -362 446q-68 -46 -112 -109t-44 -136zM563 1147q0 -15 2.5 -30.5t8.5 -33.5t10.5 -31t15.5 -33.5t16.5 -31t19.5 -32.5t18 -28.5t19.5 -29.5t16.5 -25q62 47 111 123.5t49 143.5q0 63 -38.5 110t-100.5 47 q-69 0 -108.5 -40t-39.5 -109z" />
<glyph unicode="'" horiz-adv-x="569" d="M207 922v346q-12 164 80 164q90 0 78 -164v-346q6 -56 -13 -89.5t-65 -33.5q-92 0 -80 123z" />
<glyph unicode="(" horiz-adv-x="681" d="M133 643q0 291 103.5 502t324.5 401l53 -55q-147 -167 -205.5 -387t-58.5 -488q0 -250 59.5 -456t202.5 -373l-55 -53q-221 190 -322.5 402.5t-101.5 506.5z" />
<glyph unicode=")" horiz-adv-x="681" d="M68 -211q147 167 205.5 387t58.5 488q0 250 -59.5 456t-202.5 373l55 53q221 -190 322.5 -402.5t101.5 -506.5q0 -291 -103.5 -502t-324.5 -401z" />
<glyph unicode="*" horiz-adv-x="909" d="M98 887l271 123l-271 108q47 60 82 142l226 -173l-29 285q79 -8 160 0l-33 -285l223 177q42 -86 84 -142l-262 -112l262 -109q-32 -51 -82 -145l-225 164l33 -279q-96 7 -160 0l29 279l-218 -172q-16 27 -34.5 59t-24.5 43z" />
<glyph unicode="+" horiz-adv-x="1241" d="M104 434v176h428v424h177v-424h428v-176h-428v-434h-177v434h-428z" />
<glyph unicode="," horiz-adv-x="569" d="M45 -365l92 379q33 136 60 199q21 50 50 72t81 22q77 0 117 -62.5t-1 -129.5q-126 -189 -350 -502z" />
<glyph unicode="-" horiz-adv-x="681" d="M86 346v219h512v-219h-512z" />
<glyph unicode="." horiz-adv-x="569" d="M117 139q0 68 49.5 118t116.5 50q68 0 119 -50t51 -118q0 -70 -49.5 -119t-120.5 -49q-68 0 -117 50t-49 118z" />
<glyph unicode="/" horiz-adv-x="796" d="M4 -264l617 1810q86 -12 172 0l-617 -1810q-86 12 -172 0z" />
<glyph unicode="0" d="M80 672q0 122 24.5 257t73.5 218q135 225 397 225q80 0 146.5 -20t115.5 -54t87.5 -83.5t63 -105.5t40.5 -123t22.5 -132.5t6.5 -136.5q0 -91 -4.5 -159t-19 -150.5t-46.5 -154t-82 -130.5q-131 -152 -336 -152q-133 0 -226.5 51.5t-156.5 165.5q-61 107 -83.5 222.5 t-22.5 261.5zM383 647q0 -103 2 -173.5t8.5 -142.5t19.5 -117t33.5 -81.5t51.5 -53t73 -16.5q106 0 144.5 148.5t38.5 464.5q0 336 -38.5 470t-140.5 134q-40 0 -70.5 -18t-51.5 -56t-35 -88t-21.5 -125t-10.5 -156t-3 -190z" />
<glyph unicode="1" d="M129 1126v17q231 74 590 252l16 -11v-1394q-117 10 -141 10t-141 -10v1157q-117 -68 -240 -123q-31 52 -84 102z" />
<glyph unicode="2" d="M94 1112q33 89 101 148.5t150.5 85.5t178.5 26q75 0 142.5 -12.5t128.5 -41t105.5 -71t70.5 -107.5t26 -145q0 -142 -75 -250q-64 -95 -185 -196q-209 -177 -321 -289l2 -10h262q105 0 317 16q-10 -113 -10 -133q0 -21 10 -133h-901v88q7 7 22 20q209 196 309 312 q267 310 267 567q0 54 -13 104t-38.5 93.5t-71 69.5t-104.5 26q-50 0 -89.5 -30t-61.5 -76t-33 -96.5t-9 -96.5l-20 -4q-73 89 -160 135z" />
<glyph unicode="3" d="M86 129q87 111 127 176l27 -2q15 -106 70 -173t155 -67q72 0 128.5 46.5t84 112.5t27.5 134q0 72 -13.5 126t-37 85t-56 51.5t-70 25.5t-78.5 7.5t-83 -2.5v103q79 -10 136 8t88 59.5t44.5 94.5t13.5 122q0 43 -8 83t-26 77.5t-52 60.5t-80 23q-40 0 -72 -13.5t-52 -35 t-35.5 -55t-23.5 -66t-15 -74.5l-29 -2q-101 105 -137 137q67 112 168.5 156.5t238.5 44.5q199 0 313.5 -85.5t114.5 -227.5q0 -124 -65.5 -198t-190.5 -118l-26 -10q-9 -12 0.5 -18.5t33.5 -9.5l23 -3q9 -3 33 -9.5t37 -10t36.5 -12t38 -16.5t34.5 -22t32.5 -29.5t27 -37.5 t22 -47.5t13 -59.5t5.5 -73q0 -123 -74 -219t-193 -145.5t-260 -49.5q-277 0 -395 158z" />
<glyph unicode="4" d="M70 332q10 82 10 98t-10 98q78 110 327 486q17 26 74 108.5t93.5 138.5t68.5 111q108 -10 127 -10q20 0 127 10v-821h170q-10 -92 -10 -109q0 -18 10 -110h-170v-342q-118 10 -142 10q-23 0 -141 -10v342h-534zM215 563l10 -12h379v596z" />
<glyph unicode="5" d="M66 86q55 77 102 209h29q24 -96 79.5 -164t143.5 -68q56 0 100.5 20t73 52.5t47.5 77.5t27 91.5t8 96.5q0 120 -70 209q-32 38 -78 62t-94 24q-99 0 -178 -82l-49 29l33 717h682q-11 -113 -11 -121q0 -10 11 -123h-588l-17 -354l13 -6q87 47 207 47q97 0 172.5 -21.5 t140.5 -76.5q129 -111 129 -283q0 -102 -48.5 -191.5t-133.5 -150.5q-72 -53 -172.5 -81t-198.5 -28t-192.5 29t-167.5 86z" />
<glyph unicode="6" d="M76 541q0 136 26 264.5t93 255t167 203.5q141 108 359 108q61 0 102 -10q4 -17 19.5 -46.5t17.5 -33.5l-12 -20q-50 18 -123 18q-67 0 -127 -35.5t-104 -93.5q-18 -24 -31 -45t-22.5 -46.5t-14 -41t-13.5 -51t-14 -52.5q-16 -61 -24 -194l14 -8q43 48 105.5 76t126.5 28 q182 0 300.5 -106t118.5 -287q0 -133 -66 -237.5t-175.5 -160t-241.5 -55.5q-47 0 -114.5 14t-104.5 33q-94 49 -156 136q-106 158 -106 387zM379 406q0 -343 174 -343q50 0 88.5 32.5t58 82.5t28.5 99.5t9 95.5q0 53 -7 101.5t-25 103t-57.5 87.5t-96.5 33q-51 0 -87 -29 t-53 -76.5t-24.5 -93t-7.5 -93.5z" />
<glyph unicode="7" d="M129 -10q190 286 380 591.5t308 516.5l-682 -19q10 117 10 142q0 21 -10 139h934l14 -39q-433 -736 -688 -1331q-113 10 -133 10t-133 -10z" />
<glyph unicode="8" d="M82 373q0 132 80 239.5t207 128.5v15q-101 20 -169.5 100t-68.5 182q0 87 38 153.5t102 104.5t139 57t157 19q98 0 168 -15t137 -61q69 -48 102.5 -103.5t33.5 -135.5q0 -113 -63 -192t-173 -109v-15q127 -20 205 -116.5t78 -225.5t-65 -227.5t-175 -149.5t-246 -51 q-212 0 -344 97q-69 51 -106 133t-37 172zM385 381q0 -38 4.5 -77t17 -83.5t32 -78.5t53.5 -56.5t77 -22.5q50 0 87.5 33t57 84t29 101t9.5 96q0 60 -13.5 132.5t-38.5 111.5q-34 53 -86 72.5t-110 -5.5q-35 -16 -60 -52.5t-37 -83.5t-17 -89t-5 -82zM412 1018 q0 -107 34 -162q47 -80 121 -80q46 0 79.5 26.5t50 69t23.5 84t7 84.5q0 240 -160 240q-39 0 -68 -18t-45 -44.5t-26 -63.5t-13 -69t-3 -67z" />
<glyph unicode="9" d="M88 903q0 117 29 196t108 158q118 115 318 115q263 0 391 -168q58 -79 86.5 -184.5t28.5 -214.5q0 -159 -38 -310.5t-118 -269.5q-77 -117 -212 -185.5t-278 -68.5q-61 0 -116 17q-10 6 -21 7.5t-14.5 5.5t-7.5 19q-19 58 -45 109l14 14q110 -80 180 -80q75 0 136.5 37 t100 93.5t65.5 131t39.5 143t15.5 136.5v21l-15 6q-45 -50 -109.5 -77.5t-133.5 -27.5q-172 0 -288 104t-116 273zM391 973q0 -47 6.5 -95t24 -105t56.5 -92.5t95 -35.5q50 0 86 29.5t53.5 77t25 93.5t7.5 93q0 342 -174 342q-50 0 -88.5 -32.5t-58 -81.5t-28 -99.5 t-5.5 -93.5z" />
<glyph unicode=":" horiz-adv-x="569" d="M117 139q0 67 50.5 117.5t117.5 50.5q68 0 118 -49.5t50 -118.5q0 -70 -49.5 -119t-118.5 -49t-118.5 50t-49.5 118zM117 807q0 67 50 116.5t118 49.5t118 -49t50 -117q0 -70 -49 -120t-119 -50q-68 0 -118 51t-50 119z" />
<glyph unicode=";" horiz-adv-x="569" d="M45 -365l92 379q33 136 60 199q21 50 50 72t81 22q77 0 117 -62.5t-1 -129.5q-126 -189 -350 -502zM147 807q0 67 50 116.5t118 49.5t118 -49t50 -117q0 -70 -49 -120t-119 -50q-68 0 -118 51t-50 119z" />
<glyph unicode="&#x3c;" horiz-adv-x="1241" d="M100 446v152l1043 471v-172l-815 -375l815 -375v-172z" />
<glyph unicode="=" horiz-adv-x="1241" d="M104 233v177h1033v-177h-1033zM104 635v176h1033v-176h-1033z" />
<glyph unicode="&#x3e;" horiz-adv-x="1241" d="M98 -25v172l815 375l-815 375v172l1043 -471v-152z" />
<glyph unicode="?" horiz-adv-x="909" d="M129 1356q42 34 116.5 55t133.5 21q95 0 153 -17q55 -15 95 -36t71 -58q68 -81 68 -176q0 -73 -33.5 -140t-81 -116.5t-95 -94t-81 -90.5t-33.5 -88q0 -40 31.5 -66t71.5 -26q17 0 45 9.5t41 19.5l18 -10q-28 -67 -33 -86q-13 -1 -55.5 -8t-66.5 -7q-54 0 -111 18.5 t-96 51.5q-37 32 -61.5 79.5t-24.5 94.5q0 80 29 132.5t94 117.5q18 18 100 111q26 30 37.5 45t23 42t11.5 56q0 63 -44.5 100t-109.5 37q-126 0 -180 -108h-27zM266 139q0 67 50 117.5t118 50.5t118 -49.5t50 -118.5q0 -70 -49.5 -119t-118.5 -49t-118.5 50t-49.5 118z" />
<glyph unicode="@" horiz-adv-x="1536" d="M82 682q0 208 93.5 379.5t260 271t369.5 99.5q140 0 262.5 -49t206.5 -130.5t132 -188t48 -220.5q0 -238 -141 -391q-64 -68 -153 -121t-165 -53q-67 0 -104.5 51t-42.5 123q-40 -56 -68 -86.5t-72.5 -53t-99.5 -22.5q-124 0 -193 82t-69 215q0 112 58 219.5t157.5 175.5 t210.5 68q61 0 108.5 -30t73.5 -69l21 80h194l-133 -502q-15 -44 -8 -88.5t41 -44.5q29 0 64 19t70 58t63.5 90.5t46.5 124t18 151.5q0 88 -33 170.5t-95 149.5t-162.5 108t-223.5 41q-262 0 -425 -170.5t-163 -442.5q0 -186 79 -325.5t217.5 -212t316.5 -72.5 q141 0 264 72.5t205 195.5h133q-90 -176 -260 -283.5t-365 -107.5q-150 0 -285 53.5t-235 146.5t-158.5 228.5t-58.5 290.5zM559 518q0 -58 18.5 -89.5t69.5 -31.5q35 0 77 30t80.5 82t64.5 135.5t26 178.5q0 60 -21 89.5t-69 29.5q-56 0 -104.5 -47.5t-78 -116.5 t-46.5 -139t-17 -121z" />
<glyph unicode="A" horiz-adv-x="1366" d="M27 -6l585 1419q41 -6 78 -6q38 0 78 6l571 -1423q-147 10 -176 10t-176 -10q-90 291 -145 428h-477q-18 -54 -49.5 -140.5t-54.5 -153.5t-40 -130q-3 0 -39.5 3t-56.5 3q-15 0 -31 -1t-36 -2.5t-31 -2.5zM420 543h375l-183 477z" />
<glyph unicode="B" horiz-adv-x="1251" d="M162 0v1395h528q83 0 152 -15.5t128.5 -49t93.5 -96.5t34 -149q0 -70 -27.5 -128.5t-75.5 -98.5t-107 -65t-126 -35v-19q51 -5 97.5 -16t97.5 -36t88 -61t61 -94t24 -131q0 -82 -28.5 -150t-76 -114t-112 -77.5t-134 -45.5t-144.5 -14h-473zM469 119h102q92 0 167 74 t75 194q0 163 -87 231q-74 57 -208 58q-24 0 -49 -2v-555zM469 793q7 0 36.5 -0.5t38 0.5t32.5 2t35.5 4.5t30.5 9t33.5 14.5t29.5 21q88 74 88 213q0 109 -58.5 168t-161.5 59q-49 0 -104 -8v-483z" />
<glyph unicode="C" horiz-adv-x="1366" d="M53 653q0 157 42 286t116.5 219.5t177 153t223 91.5t256.5 29q105 0 218 -26.5t200 -74.5q-1 -3 -47 -211h-29q-58 85 -150 137t-190 52q-99 0 -180 -36.5t-135 -97.5t-91.5 -142.5t-54 -169.5t-16.5 -181q0 -269 128.5 -432.5t359.5 -163.5q94 0 195 43.5t171 110.5 l27 -13l-45 -176q-172 -88 -406 -88q-219 0 -393.5 84t-275.5 242t-101 364z" />
<glyph unicode="D" horiz-adv-x="1593" d="M174 0v1395h700q128 -5 232 -42.5t175.5 -99t119.5 -144.5t70 -176t22 -196q0 -170 -57.5 -310t-157.5 -233t-236.5 -143.5t-293.5 -50.5h-574zM481 119h174q89 0 161 18t136 62.5t107.5 114t68.5 177.5t25 248q0 537 -471 537h-201v-1157z" />
<glyph unicode="E" horiz-adv-x="1024" d="M160 0v1395h780q-10 -73 -10 -88t10 -88q-224 28 -424 28h-49v-440h213q115 0 252 18q-10 -73 -10 -88t10 -88q-144 19 -252 19h-213v-521q266 3 473 29q-10 -73 -10 -88q0 -16 10 -88h-780z" />
<glyph unicode="F" horiz-adv-x="1024" d="M160 -10v1405h780q-10 -73 -10 -88t10 -88q-250 28 -473 28v-440h217q93 0 248 18q-10 -73 -10 -88t10 -88q-204 19 -250 19h-215v-678q-127 10 -154 10q-25 0 -153 -10z" />
<glyph unicode="G" horiz-adv-x="1593" d="M86 662q0 186 65.5 334.5t180.5 242.5t268 143.5t332 49.5q274 0 493 -125q-45 -103 -57 -207h-29q-70 102 -175 155.5t-228 53.5q-124 0 -223 -53.5t-160.5 -145t-94 -208t-32.5 -247.5q0 -268 129.5 -418.5t362.5 -150.5q129 0 225 57v480q140 -11 153 -11q14 0 154 11 v-568q-332 -92 -547 -92q-132 0 -251 26t-223 82t-180 137t-119.5 197.5t-43.5 256.5z" />
<glyph unicode="H" horiz-adv-x="1593" d="M176 -10v1405q140 -11 154 -11q13 0 153 11v-555q286 -11 314 -11q27 0 313 11v555q140 -11 154 -11q13 0 153 11v-1405q-127 10 -153 10t-154 -10v686q-260 10 -313 10q-54 0 -314 -10v-686q-127 10 -153 10t-154 -10z" />
<glyph unicode="I" horiz-adv-x="681" d="M186 -10v1405q140 -11 154 -11t154 11v-1405q-128 10 -154 10t-154 -10z" />
<glyph unicode="J" horiz-adv-x="681" d="M29 -229q44 12 76 35t51 54.5t30.5 72.5t15.5 88.5t6 102.5v47q0 32 -1 66v66v1092q140 -11 153 -11q14 0 154 11v-1055v-47.5v-52.5t-0.5 -49t-2.5 -53.5t-5 -48t-7.5 -51t-11 -45t-16 -46t-20.5 -39.5q-121 -202 -392 -234z" />
<glyph unicode="K" horiz-adv-x="1251" d="M150 -10v1405q140 -11 153 -11q14 0 154 11v-641q295 342 532 641q102 -11 111 -11q6 0 108 11v-17l-336 -352q-26 -28 -90 -100.5t-104 -114.5l551 -793v-28q-127 10 -154 10q-25 0 -153 -10l-465 651v-651q-127 10 -154 10q-25 0 -153 -10z" />
<glyph unicode="L" horiz-adv-x="1024" d="M164 0v1395q140 -11 153 -11q14 0 154 11v-1248q181 0 469 29q-10 -73 -10 -88q0 -16 10 -88h-776z" />
<glyph unicode="M" horiz-adv-x="1820" d="M70 -10q77 430 209 1405q9 -1 26 -4.5t30.5 -5t26.5 -1.5q7 0 87 11q132 -290 471 -963q27 54 140.5 274t190 375.5t146.5 313.5q80 -11 86 -11q8 0 88 11q6 -56 29.5 -259t30.5 -267t26.5 -222t31 -241.5t28.5 -200t34 -215.5q-143 10 -170 10q-23 0 -166 -10 q-7 147 -20.5 299t-36.5 363.5t-31 291.5q-282 -566 -455 -944q-23 4 -42.5 4t-34.5 -4q-77 165 -244 504.5t-205 417.5q-79 -607 -86 -932q-82 10 -96 10q-12 0 -94 -10z" />
<glyph unicode="N" horiz-adv-x="1593" d="M172 -6v1401h203q57 -62 386 -413.5t499 -545.5v959q40 -6 81 -6t82 6v-1405l-174 2q-53 59 -214 239t-266.5 295.5t-209.5 225.5l-223 233v-991q-81 6 -82 6t-82 -6z" />
<glyph unicode="O" horiz-adv-x="1705" d="M72 694q0 153 55 287.5t156.5 234.5t255 158t340.5 58q122 0 225.5 -24t179.5 -65t137 -98.5t100.5 -122t65.5 -137.5t37.5 -142.5t11.5 -140.5v-5q0 -147 -56 -279q-56 -134 -158 -235t-256 -160.5t-337 -59.5q-227 0 -397 85t-265 251t-95 395zM412 635 q0 -82 14.5 -159t48 -149t82 -125t121.5 -84.5t162 -31.5q92 0 168 35.5t129 97t89 145t53 178.5t17 199q0 82 -15 160.5t-48.5 153t-82 130.5t-122 90t-162.5 34q-218 0 -336 -168t-118 -506z" />
<glyph unicode="P" d="M147 -10v1405h504q215 0 327 -87t112 -259q0 -107 -31.5 -186t-85 -128t-136.5 -78t-173.5 -40t-208.5 -11v-616q-127 10 -154 10t-154 -10zM455 719q92 4 135 14q94 26 138 101.5t44 177.5q0 121 -54.5 196.5t-135.5 75.5h-127v-565z" />
<glyph unicode="Q" horiz-adv-x="1705" d="M66 694q0 169 63 309t172.5 233.5t256.5 144.5t314 51q341 0 549.5 -201.5t208.5 -528.5q0 -249 -141 -437t-379 -265q250 -158 530 -311q-146 -29 -286 -113q-188 147 -312 234l-221 153q-345 0 -550 193t-205 538zM406 635q0 -82 14.5 -159t48 -149t82 -125 t121.5 -84.5t162 -31.5q140 0 244 83.5t158 231t54 340.5q0 82 -15 160.5t-48.5 153t-82 130.5t-122 90t-162.5 34h-6q-96 0 -172 -33q-77 -34 -128.5 -93.5t-85 -145.5t-48 -185t-14.5 -217z" />
<glyph unicode="R" horiz-adv-x="1251" d="M154 -10v1405h436h29.5h34t33.5 -0.5t37 -1t35.5 -2t37 -3.5t33.5 -5t34 -7t29.5 -9.5t28.5 -12.5q178 -93 178 -293q0 -147 -86.5 -242t-233.5 -127q40 -69 90.5 -151t84 -134t99 -152.5t89.5 -137.5l80 -127q-153 10 -187 10q-32 0 -184 -10l-244 430q-16 29 -64 110 t-69 117h-14v-657q-127 10 -154 10q-25 0 -153 -10zM461 735q27 -3 52 -3q269 0 269 296q0 48 -10 102q-7 38 -23 66t-37 44t-47.5 26.5t-55 13t-59 4.5t-59.5 0h-30v-549z" />
<glyph unicode="S" horiz-adv-x="1024" d="M86 51q44 153 59 260h39q23 -105 99.5 -165t183.5 -60q101 0 170.5 56t69.5 157q0 52 -21 94t-56.5 70.5t-81 53t-96.5 47.5t-101.5 48.5t-96 60t-81 78t-56.5 107.5t-21 143q0 186 124.5 308.5t348.5 122.5q102 0 194 -31t130 -68q-33 -86 -66 -203h-30 q-32 85 -91.5 132t-144.5 47q-116 0 -170.5 -54t-54.5 -147q0 -56 34.5 -100.5t89 -76.5t121 -63.5t133 -71t121 -87.5t89 -124t34.5 -171q0 -197 -152.5 -324t-389.5 -127q-192 0 -330 88z" />
<glyph unicode="T" d="M41 1221q10 73 10 88q0 13 -10 86h1055q-11 -80 -11 -86q0 -8 11 -88q-242 28 -367 28v-1259q-127 10 -154 10q-25 0 -153 -10v1259q-169 0 -381 -28z" />
<glyph unicode="U" horiz-adv-x="1593" d="M182 559v836q140 -11 154 -11q13 0 153 11v-582q0 -299 15 -387q16 -86 36.5 -136t71.5 -100q95 -88 234 -88q142 0 226 57t138 191q37 90 37 424v621q40 -6 82 -6q41 0 82 6v-729q0 -8 -1 -23q-4 -196 -25 -285q-41 -183 -191 -286q-151 -109 -387 -109q-99 0 -187.5 17 t-171.5 54.5t-144.5 107t-88.5 165.5q-33 115 -33 252z" />
<glyph unicode="V" horiz-adv-x="1366" d="M37 1395q162 -11 180 -11t180 11q45 -152 104 -318t140 -378t119 -318q246 596 383 1014q47 -6 94 -6t94 6q-14 -32 -65 -152t-68.5 -160.5t-63.5 -148.5t-67.5 -161t-61.5 -149.5t-66 -161.5t-59.5 -151t-62.5 -164.5t-57 -156.5q-72 10 -86 10q-16 0 -88 -10 q-226 627 -549 1405z" />
<glyph unicode="W" horiz-adv-x="2048" d="M31 1395q157 -11 170 -11q17 0 168 11q82 -344 270 -1024q20 58 156.5 439t197.5 585q52 -6 103 -6q50 0 102 6q50 -188 166.5 -531.5t159.5 -492.5q211 656 303 1024q50 -6 96 -6q47 0 94 6q-289 -785 -477 -1405q-88 10 -102 10q-18 0 -105 -10q-102 378 -327 999 q-27 -77 -156 -435t-199 -564q-88 10 -102 10q-17 0 -105 -10q-22 83 -46.5 173t-45 163t-50.5 175t-48 162t-52.5 173.5t-49 161t-53 173.5t-50.5 164z" />
<glyph unicode="X" horiz-adv-x="1251" d="M49 -6q258 361 443 647l-420 754q168 -11 182 -11t182 11q46 -98 140.5 -277.5t113.5 -218.5q39 61 143.5 231.5t165.5 264.5q49 -6 101 -6q50 0 102 6l-198 -279q-40 -56 -119 -169t-119 -169l27 -47q23 -42 78.5 -140.5t86 -153.5t76 -138.5t84.5 -158.5t76 -150 q-148 10 -178 10q-29 0 -176 -10q-37 74 -271 522l-188 -295q-55 -87 -127 -223q-3 0 -42 3t-60 3q-16 0 -33 -1t-37.5 -2.5t-32.5 -2.5z" />
<glyph unicode="Y" horiz-adv-x="1251" d="M37 1395q168 -11 184 -11q17 0 185 11q64 -131 174 -365q101 -211 129 -246q74 91 307 611q50 -6 100 -6q48 0 98 6q-46 -81 -139.5 -242.5t-163 -287t-127.5 -242.5v-633q-128 10 -153 10q-27 0 -154 -10v592q-85 146 -231 423.5t-209 389.5z" />
<glyph unicode="Z" horiz-adv-x="1251" d="M49 0v35q405 629 725 1186v26q-263 0 -641 -22q10 73 10 86q0 11 -10 84h1069v-35q-53 -81 -104.5 -162t-111 -179.5t-96 -159.5t-107 -182.5t-93 -161t-104 -182.5t-94.5 -165v-21q214 0 708 23q-10 -72 -10 -84q0 -14 10 -86h-1151z" />
<glyph unicode="[" horiz-adv-x="681" d="M170 -266v1812h430v-112l-225 10v-1608l225 10v-112h-430z" />
<glyph unicode="\" horiz-adv-x="1064" d="M49 1546q108 -9 205 0l762 -1546q-108 9 -205 0z" />
<glyph unicode="]" horiz-adv-x="681" d="M82 -154l225 -10v1608l-225 -10v112h430v-1812h-430v112z" />
<glyph unicode="^" horiz-adv-x="1241" d="M106 569l422 826h185l422 -826h-195l-319 602l-320 -602h-195z" />
<glyph unicode="_" horiz-adv-x="1024" d="M0 -250h1024v-78h-1024v78z" />
<glyph unicode="`" horiz-adv-x="681" d="M16 1405q0 38 26 64t64 26q46 0 73 -16.5t63 -57.5l264 -305h-115l-268 166q-6 4 -23.5 15t-25.5 16.5t-21.5 16.5t-20 21t-11.5 24t-5 30z" />
<glyph unicode="a" horiz-adv-x="1024" d="M49 242q0 58 15 101.5t42 75t76 56.5t104 42.5t138 37.5q105 25 149 53q31 29 31 80q0 72 -61 126t-133 54q-88 0 -163 -45.5t-87 -81.5h-15l-26 123q69 65 173.5 101t205.5 36q69 0 134 -14.5t124 -45t95 -86t36 -128.5v-557q-1 -58 21 -78q19 -18 68 -18h15v-47 q-119 -56 -184 -56q-71 0 -124.5 40.5t-78.5 109.5q-39 -70 -110.5 -110t-151.5 -40q-131 0 -212 70.5t-81 200.5zM336 268q0 -68 26.5 -116t86.5 -48q146 0 155 224v198q-16 -7 -58.5 -21t-80.5 -30t-64 -37q-65 -53 -65 -170z" />
<glyph unicode="b" d="M111 0v1546q117 -10 141 -10t141 10v-706q40 75 114 118t161 43q97 0 175.5 -41t127 -109t74.5 -153t26 -178q0 -253 -117 -389q-135 -160 -346 -160q-84 0 -160.5 37.5t-119.5 106.5q-36 -21 -103 -66t-73 -49h-41zM393 479q0 -41 0.5 -63.5t3.5 -72.5t9.5 -81.5 t19.5 -73t31.5 -66t48 -42t67.5 -17.5q94 0 144.5 114t50.5 308q0 37 -0.5 62t-4 69t-10 74t-20 66.5t-32.5 58.5t-48.5 37.5t-66.5 15.5q-193 0 -193 -389z" />
<glyph unicode="c" horiz-adv-x="1024" d="M92 469q0 243 148 387.5t391 144.5q93 0 188 -23.5t164 -68.5l-78 -213h-49q-11 90 -66.5 151.5t-142.5 61.5q-68 0 -120 -40.5t-79 -104t-40 -128.5t-13 -128q0 -404 312 -404q58 0 117.5 26.5t95.5 70.5l34 -29l-49 -123q-39 -35 -125 -56.5t-151 -21.5 q-243 0 -390 130.5t-147 367.5z" />
<glyph unicode="d" d="M63 485q0 79 15 153.5t47 140.5t77.5 115.5t111.5 78t145 28.5q196 0 278 -147v692q117 -10 142 -10q23 0 141 10v-1556q-112 10 -135 10q-25 0 -137 -10v180q-33 -92 -107 -145.5t-174 -53.5q-88 0 -158 28.5t-115.5 76t-75.5 114.5t-42.5 140t-12.5 155zM367 479 q0 -36 2 -69.5t7.5 -80t18.5 -83.5t31.5 -70.5t49.5 -52.5t71 -19q50 0 88 30t58 72.5t32.5 100.5t16 103t3.5 92q0 44 -3 84.5t-14 94.5t-29.5 93t-53.5 66.5t-82 27.5q-42 0 -75.5 -19.5t-54 -53.5t-34.5 -72.5t-20.5 -86t-9 -83.5t-2.5 -74z" />
<glyph unicode="e" horiz-adv-x="1024" d="M72 510q0 220 125 355.5t344 135.5q118 0 204.5 -39t135.5 -109.5t69 -162.5q14 -64 14 -137q0 -33 -3 -68h-586v-20q0 -70 12 -129q14 -67 46 -120t89.5 -82.5t136.5 -29.5q61 0 126 26t114 67l25 -19l-45 -115q-62 -43 -140 -67.5t-153 -24.5q-251 0 -382.5 142 t-131.5 397zM375 584h303q0 325 -135 325q-36 0 -64 -15.5t-45.5 -45t-29 -60t-17.5 -72.5t-8.5 -69.5t-3.5 -62.5z" />
<glyph unicode="f" horiz-adv-x="645" d="M18 852q4 30 4 63t-4 68h152q30 209 106 340q77 138 174 189q63 33 152 33q46 0 98 -9q-12 -75 -12 -159q0 -49 4 -101l-26 -10q-108 57 -181 57q-85 0 -112 -27q-25 -25 -25 -43q0 -36 31 -122t59 -148h207q-4 -33 -4 -65.5t4 -65.5h-192v-862q-117 10 -142 10 q-23 0 -141 -10v862h-152z" />
<glyph unicode="g" horiz-adv-x="1024" d="M55 -268q0 80 45.5 140.5t122.5 88.5l31 19l-14 16q-48 17 -74.5 58t-26.5 93q0 66 52 128.5t108 76.5l31 8q-132 31 -196 112t-64 216q0 313 458 313q104 0 209 -6h248l-2 -94l-184 6q108 -91 108 -229q0 -166 -119 -251t-313 -85q-2 0 -21 0.5t-28 0t-22 -4t-19 -10.5 q-25 -29 -25 -54q0 -57 44 -81t122 -27l176 -6q161 -6 230 -73.5t69 -190.5q0 -109 -45.5 -194.5t-122.5 -137.5t-171.5 -78.5t-198.5 -26.5q-70 0 -136.5 13.5t-130 42.5t-102.5 85t-39 132zM242 -227q0 -112 79.5 -171t194.5 -59q110 0 181 69t71 159q0 41 -9.5 72.5 t-23 52t-39 35t-47 22t-58 11.5t-60.5 4.5t-66 0.5t-71 -3.5t-60.5 -15t-51.5 -37t-30 -65.5q-10 -25 -10 -75zM356 653q0 -37 5.5 -72.5t18 -74.5t40.5 -62.5t67 -23.5q134 0 134 272q0 37 -4.5 72t-16.5 74.5t-39 63.5t-65 24q-140 0 -140 -273z" />
<glyph unicode="h" d="M113 -10v1556q118 -10 141 -10q24 0 141 10v-704q59 66 142 112.5t161 46.5q143 0 240 -94q52 -51 69 -112t17 -148v-657q-118 10 -141 10q-25 0 -142 -10v510q0 62 -3.5 108t-14.5 89.5t-29 71t-48.5 44t-72.5 16.5q-29 0 -53 -8.5t-41.5 -19.5t-31.5 -33.5t-22.5 -39.5 t-14.5 -48t-9 -49.5t-4.5 -53.5t-1.5 -49v-48v-19v-471q-117 10 -141 10t-141 -10z" />
<glyph unicode="i" horiz-adv-x="569" d="M123 1358q0 65 47.5 113.5t112.5 48.5q66 0 114.5 -48t48.5 -114t-48.5 -114t-114.5 -48q-65 0 -112.5 48.5t-47.5 113.5zM143 -10v993q117 -10 142 -10q23 0 141 10v-993q-118 10 -141 10q-25 0 -142 -10z" />
<glyph unicode="j" horiz-adv-x="569" d="M-16 -350q36 11 63 26.5t44.5 37.5t28 45t16 56.5t7.5 64t2 75.5v1028q117 -10 142 -10q23 0 141 10v-999q0 -102 -34.5 -171t-119.5 -135q-109 -85 -268 -98zM125 1354q0 70 44.5 118t111.5 48q74 0 121 -46.5t47 -119.5q0 -68 -49 -113t-119 -45q-64 0 -110 47t-46 111 z" />
<glyph unicode="k" horiz-adv-x="1024" d="M121 -10v1556q118 -10 141 -10t141 10v-1001q5 -5 19 -2q39 39 77.5 80.5t83 92t72 82t83.5 96t77 89.5q73 -10 88 -10q14 0 86 10v-14q-56 -72 -175.5 -189t-166.5 -172l164 -262q124 -198 201 -340v-16q-128 10 -156 10t-156 -10q-131 249 -239 409q-1 1 -5 7.5t-5 9 t-5 8.5t-6 8.5l-6 7.5t-7 8l-7 7t-8.5 7t-8.5 5v-477q-118 10 -141 10q-24 0 -141 -10z" />
<glyph unicode="l" horiz-adv-x="569" d="M143 -10v1556q118 -10 142 -10q23 0 141 10v-1556q-118 10 -141 10q-25 0 -142 -10z" />
<glyph unicode="m" horiz-adv-x="1705" d="M109 -10v993q118 -10 141 -10t141 10v-154q45 75 129 123.5t172 48.5q98 0 169.5 -47.5t103.5 -138.5q123 186 311 186q171 0 245 -92t74 -266v-653q-117 10 -141 10t-141 -10v555q0 48 -2.5 83t-11 75.5t-24 66t-44 42.5t-68.5 17q-53 0 -87.5 -15.5t-52 -47t-24 -68 t-6.5 -88.5v-620q-118 10 -141 10q-24 0 -141 -10v555q0 48 -2.5 83t-11 75.5t-24 66t-44 42.5t-68.5 17q-170 0 -170 -241v-598q-118 10 -141 10q-24 0 -141 -10z" />
<glyph unicode="n" d="M113 -10v993q113 -10 137 -10q22 0 135 10v-152q145 170 315 170q76 0 132.5 -19.5t93 -54t58.5 -87t31 -112.5t9 -138v-600q-118 10 -141 10q-25 0 -142 -10v510q0 62 -3.5 108t-14.5 89.5t-29 71t-48.5 44t-72.5 16.5q-37 0 -66 -14.5t-47.5 -35t-31.5 -55.5t-19 -63 t-9.5 -71.5t-4 -66.5t-0.5 -62v-471q-117 10 -141 10t-141 -10z" />
<glyph unicode="o" d="M68 465q0 244 133.5 390t365.5 146t368 -132t136 -359q0 -239 -135 -389t-371 -150q-228 0 -362.5 133.5t-134.5 360.5zM371 471q0 -49 3 -93.5t14.5 -105.5t31 -104t57 -74t88.5 -31q57 1 98 43.5t63 114.5t32 151.5t10 170.5q0 77 -10.5 141.5t-32 116t-58.5 80 t-87 28.5q-60 0 -102.5 -33.5t-65 -96t-32 -137t-9.5 -171.5z" />
<glyph unicode="p" d="M115 -530v1513q112 -10 137 -10q22 0 135 10v-180q36 93 108 145.5t173 52.5q107 0 187 -40.5t126 -111.5t68 -157t22 -188q0 -133 -34 -237.5t-92 -167.5t-130 -95.5t-153 -32.5q-172 0 -265 148v-649q-118 10 -141 10q-24 0 -141 -10zM391 471q0 -367 187 -367 q95 10 142.5 110t47.5 267q0 186 -41 286.5t-137 100.5q-51 0 -89 -29.5t-58.5 -72t-32.5 -101t-15.5 -103t-3.5 -91.5z" />
<glyph unicode="q" d="M74 475q0 244 97 385t292 141q111 0 182 -48.5t113 -149.5v180q112 -10 137 -10q23 0 135 10v-1513q-117 10 -141 10q-23 0 -141 -10v649q-38 -63 -105.5 -105.5t-159.5 -42.5q-187 0 -298 138t-111 366zM377 498q0 -50 8 -144q3 -40 15.5 -81t33.5 -80t56 -64t77 -25 q41 0 73 17.5t51.5 49.5t32.5 67t19.5 79.5t8.5 78.5t2 71q0 39 -2.5 75t-8.5 85.5t-20.5 89t-35 75.5t-54.5 56t-78 20q-178 0 -178 -370z" />
<glyph unicode="r" horiz-adv-x="796" d="M137 -10v993q118 -10 142 -10q23 0 141 10v-254q78 272 334 272q-13 -125 -13 -214q0 -35 2 -64l-18 -16q-39 26 -104 26q-69 0 -120 -35t-69 -100q-6 -21 -9 -55.5t-3 -58.5v-30v-40v-54v-370q-118 10 -141 10q-25 0 -142 -10z" />
<glyph unicode="s" horiz-adv-x="796" d="M63 55q22 121 31 195h51q28 -79 90.5 -126.5t143.5 -47.5q57 0 107.5 36.5t50.5 88.5q0 39 -26 68t-68 48.5t-92.5 38.5t-101 44.5t-92.5 59t-68 89t-26 127.5q0 150 103 237.5t250 87.5q79 0 158 -25t139 -71q-32 -109 -49 -180h-58q-12 68 -69 120t-125 52 q-62 0 -107 -30t-45 -89q0 -40 26.5 -68.5t69 -47t93.5 -36t102.5 -42t94 -58t69 -92t26.5 -135.5q0 -145 -106 -236.5t-289 -91.5q-159 0 -283 84z" />
<glyph unicode="t" horiz-adv-x="681" d="M33 852q4 33 4 65.5t-4 65.5h139v231q113 45 283 127v-358h174q-4 -32 -4 -65t4 -66h-174v-584q0 -35 1 -56.5t5 -46.5t11.5 -38t21 -25.5t34 -15.5t49.5 -0.5t68 12.5v-80q-123 -47 -213 -47q-62 0 -108.5 16.5t-75 45t-46 72t-24 90.5t-6.5 108v549h-139z" />
<glyph unicode="u" d="M103.5 322.5q-0.5 13.5 0 49.5t0.5 44v567q117 -10 142 -10q24 0 141 10v-565q0 -121 23 -170q46 -107 145 -107q29 0 53 7t41.5 16.5t31 28t22 34t14.5 41.5t9 43.5t5 47t2 45.5v45v534q117 -10 141 -10t142 10v-993q-112 10 -135 10q-25 0 -138 -10v149 q-42 -45 -70 -70.5t-66.5 -50.5t-80.5 -36t-94 -11q-83 0 -156.5 32t-117.5 95q-13 18 -23 38.5t-15.5 46.5t-9 44t-5 50t-2 45.5z" />
<glyph unicode="v" horiz-adv-x="1024" d="M33 983q133 -10 157 -10q25 0 158 10l230 -711q153 404 249 711q40 -6 82 -6q39 0 80 6q1 -7 -0.5 -14.5t-3 -12t-5.5 -12.5l-5 -10q-48 -99 -105 -240q-13 -33 -66.5 -164t-76 -189t-60.5 -161t-65 -190q-88 10 -104 10q-18 0 -105 -10q-221 642 -360 993z" />
<glyph unicode="w" horiz-adv-x="1593" d="M35 983q123 -10 149 -10q30 0 152 10l205 -702q132 400 209 702q97 -10 114 -10q18 0 115 10l209 -702q117 348 209 702q41 -6 82 -6q39 0 80 6q-222 -567 -345 -993q-92 10 -108 10q-18 0 -111 -10l-207 678q-144 -442 -210 -678q-92 10 -111 10q-21 0 -113 -10 q-172 589 -319 993z" />
<glyph unicode="x" horiz-adv-x="1024" d="M51 -6q263 363 326 452q-119 209 -318 537q137 -10 166 -10q31 0 168 10q124 -231 176 -321q118 165 213 321q47 -6 92 -6q46 0 93 6q-147 -176 -334 -422l112 -192q32 -55 109 -181t119 -198q-137 10 -168 10q-29 0 -166 -10l-197 356q-162 -246 -227 -352q-81 6 -82 6 q-16 0 -46.5 -3t-35.5 -3z" />
<glyph unicode="y" horiz-adv-x="1024" d="M39 983q127 -10 156 -10q27 0 155 10q98 -278 246 -637l78 209q118 314 155 428q44 -6 84 -6q41 0 84 6l-206 -469q-250 -566 -426 -1044q-43 6 -86 6t-86 -6l260 528z" />
<glyph unicode="z" horiz-adv-x="1024" d="M61 0v84q276 384 537 780q-225 0 -471 -20q10 57 10 69q0 13 -10 70h836v-80l-181 -254q-255 -361 -362 -530q256 0 526 20q-10 -58 -10 -69q0 -12 10 -70h-885z" />
<glyph unicode="{" horiz-adv-x="681" d="M51 635q88 19 139 78q32 36 40 70t8 91v386q0 79 17 136t71 91q42 28 94.5 41.5t88 15.5t103.5 2h19q-110 -28 -149.5 -85.5t-39.5 -172.5v-379q0 -120 -42.5 -183t-163.5 -91q65 -14 106.5 -38.5t63 -62.5t29 -80.5t7.5 -105.5v-358q0 -110 42 -171t147 -85 q-113 -2 -182 8.5t-119.5 45t-71 97.5t-20.5 166v342q0 113 -36.5 164t-150.5 78z" />
<glyph unicode="|" horiz-adv-x="1241" d="M532 0v1546h177v-1546h-177z" />
<glyph unicode="}" horiz-adv-x="681" d="M51 -266q110 27 149.5 84.5t39.5 171.5v381q0 119 42.5 182.5t163.5 91.5q-65 14 -106.5 38t-63 62.5t-29 81t-7.5 105.5v358q0 108 -42.5 170t-146.5 86q113 2 182 -8.5t119.5 -45t71 -98.5t20.5 -169v-340q0 -112 36.5 -163.5t150.5 -76.5q-88 -19 -139 -78 q-32 -37 -40 -70.5t-8 -90.5v-386q0 -79 -17 -136t-71 -93q-42 -27 -94.5 -40t-88 -15t-103.5 -2h-19z" />
<glyph unicode="~" horiz-adv-x="1241" d="M104 444q28 51 53.5 89t62.5 77t83 59.5t98 20.5q49 0 116.5 -22t122.5 -48.5t113.5 -48.5t92.5 -22q102 0 192 166l99 -113q-27 -48 -53.5 -84.5t-62.5 -72.5t-81.5 -55t-97.5 -19q-41 0 -87.5 14t-113.5 44t-72 32q-11 4 -39.5 15.5t-44.5 18t-40.5 12t-45.5 5.5 q-34 0 -62 -13.5t-54 -45t-38 -49.5t-35 -60q-3 -4 -4.5 -6.5t-2.5 -5.5z" />
<glyph unicode="&#xa9;" horiz-adv-x="1536" d="M55 694q0 150 56.5 287t151.5 235.5t226.5 157t276.5 58.5q146 0 278 -58t228 -156.5t152.5 -235.5t56.5 -288q0 -148 -56.5 -283.5t-152.5 -233.5t-228.5 -156t-277.5 -58t-276.5 58t-226.5 156t-151.5 233.5t-56.5 283.5zM178 694q0 -168 77.5 -310t213 -225t297.5 -83 q122 0 232 49t189 132t125 197t46 240q0 128 -46 243.5t-124.5 199t-188.5 133t-233 49.5q-163 0 -298.5 -84t-212.5 -227.5t-77 -313.5zM367 674q0 109 35 193.5t97 136t142.5 78t175.5 26.5q133 0 234 -55q-16 -62 -27 -119h-16q-33 48 -83.5 77t-105.5 29t-99.5 -20.5 t-74.5 -54.5t-51 -79.5t-30 -94.5t-9 -101q0 -152 70.5 -243t199.5 -91q52 0 108 24.5t95 61.5l14 -6l-24 -98q-94 -51 -225 -51q-186 0 -306 106.5t-120 280.5z" />
<glyph unicode="&#xab;" horiz-adv-x="1024" d="M172 545q155 234 260 403q36 -34 133 -90q-118 -147 -229 -311q171 -234 231 -309q-58 -24 -135 -93q-27 41 -80 126t-96 150.5t-84 123.5zM475 545q155 234 260 403q36 -34 133 -90q-118 -147 -229 -311q171 -234 231 -309q-58 -24 -135 -93q-27 41 -80 126t-96 150.5 t-84 123.5z" />
<glyph unicode="&#xad;" horiz-adv-x="681" d="M86 346v219h512v-219h-512z" />
<glyph unicode="&#xae;" horiz-adv-x="1536" d="M55 700q0 198 95 366.5t259.5 267t358.5 98.5q145 0 276.5 -58t226.5 -156.5t151.5 -234t56.5 -283.5q0 -151 -56 -287.5t-151.5 -235t-227 -156.5t-276.5 -58q-146 0 -278 58t-227 156.5t-151.5 235t-56.5 287.5zM178 700q0 -171 77.5 -314t213.5 -226.5t299 -83.5 t298.5 83.5t212.5 226.5t77 314q0 168 -77 310t-212.5 225.5t-298.5 83.5t-299 -83.5t-213.5 -225.5t-77.5 -310zM510 287v821h305q107 0 166 -51.5t59 -143.5q0 -86 -49 -142t-135 -75q50 -92 203 -334l45 -75q-10 1 -29 2.5t-34 2.5t-29 1t-29 -1t-34 -2.5t-29 -2.5 l-213 385h-37v-385q-1 0 -32.5 3t-47.5 3q-12 0 -25.5 -1t-29.5 -2.5t-25 -2.5zM670 711q99 -7 146.5 35.5t47.5 136.5q0 51 -10 83t-31.5 45.5t-40 17t-49.5 3.5h-63v-321z" />
<glyph unicode="&#xbb;" horiz-adv-x="1024" d="M154 856q60 25 135 92q25 -39 79.5 -125t97 -151t83.5 -123q-145 -219 -260 -404q-39 37 -133 91q118 147 229 311q-171 234 -231 309zM457 856q60 25 135 92q25 -39 79.5 -125t97 -151t83.5 -123q-145 -219 -260 -404q-39 37 -133 91q118 147 229 311q-171 234 -231 309 z" />
<glyph unicode="&#x401;" horiz-adv-x="1024" d="M160 0v1395h780q-10 -73 -10 -88t10 -88q-252 32 -473 28v-440h213q115 0 252 18q-10 -73 -10 -88t10 -88q-144 19 -252 19h-213v-521q266 3 473 29q-10 -73 -10 -88q0 -16 10 -88h-780zM180 1677q0 54 41 94.5t94 40.5q55 0 94.5 -39.5t39.5 -95.5q0 -54 -39.5 -92.5 t-94.5 -38.5q-51 0 -93 41t-42 90zM612 1677q0 55 41 95t95 40q51 0 90 -40.5t39 -94.5q0 -53 -38.5 -92t-90.5 -39q-55 0 -95.5 39t-40.5 92z" />
<glyph unicode="&#x402;" horiz-adv-x="1669" d="M41 1221q10 73 10 88q0 13 -10 86h1055q-1 -5 -7 -37t-6 -49q0 -18 6 -51t7 -37q-242 28 -367 28v-514q180 101 373 101q207 0 333 -108.5t126 -301.5v-41q0 -90 -1 -139t-6.5 -122t-19.5 -125.5t-37 -90.5q-121 -202 -391 -234l-31 97q111 30 150 149q28 90 28 308 q1 25 0 76v81q0 274 -233 274q-125 0 -291 -88v-581q-21 1 -74 5.5t-80 4.5q-28 0 -80.5 -4.5t-72.5 -5.5v1259q-169 0 -381 -28z" />
<glyph unicode="&#x403;" horiz-adv-x="985" d="M160 -10v1405h784q-10 -73 -10 -88t10 -88q-250 28 -477 28v-1257q-123 10 -152 10q-27 0 -155 -10zM348 1528l264 305q36 41 63 57.5t73 16.5q38 0 64 -26t26 -64q0 -19 -5.5 -34.5t-20 -29.5t-22 -20.5t-31.5 -21.5t-28 -17l-268 -166h-115z" />
<glyph unicode="&#x404;" horiz-adv-x="1366" d="M68 653q0 157 42 286t116.5 219.5t177 153t223 91.5t256.5 29q104 0 217.5 -26.5t199.5 -74.5q-10 -41 -22 -102t-18 -88h-29q-58 77 -152.5 122.5t-193.5 45.5q-106 0 -191.5 -41.5t-141 -113.5t-89.5 -160t-47 -189h458q91 0 191 14q-10 -42 -10 -82q0 -38 10 -86 q-83 15 -191 15h-466q5 -263 132 -421.5t355 -158.5q94 0 195.5 43.5t171.5 110.5l26 -13l-45 -176q-175 -88 -405 -88q-219 0 -393.5 84t-275.5 242t-101 364z" />
<glyph unicode="&#x405;" horiz-adv-x="1024" d="M86 51q44 153 59 260h39q23 -105 99.5 -165t183.5 -60q101 0 170.5 56t69.5 157q0 52 -21 94t-56.5 70.5t-81 53t-96.5 47.5t-101.5 48.5t-96 60t-81 78t-56.5 107.5t-21 143q0 186 124.5 308.5t348.5 122.5q102 0 194 -31t130 -68q-33 -86 -66 -203h-30 q-32 85 -91.5 132t-144.5 47q-116 0 -170.5 -54t-54.5 -147q0 -56 34.5 -100.5t89 -76.5t121 -63.5t133 -71t121 -87.5t89 -124t34.5 -171q0 -197 -152.5 -324t-389.5 -127q-192 0 -330 88z" />
<glyph unicode="&#x406;" horiz-adv-x="681" d="M186 -10v1405q140 -11 154 -11t154 11v-1405q-128 10 -154 10t-154 -10z" />
<glyph unicode="&#x407;" horiz-adv-x="681" d="M-8 1679q0 53 40 93t93 40q54 0 93.5 -39t39.5 -94t-39 -94t-94 -39q-51 0 -92 41t-41 92zM186 -10v1405q140 -11 154 -11t154 11v-1405q-128 10 -154 10t-154 -10zM422 1679q0 54 40.5 93.5t94.5 39.5q52 0 91.5 -40t39.5 -93q0 -54 -38.5 -93.5t-92.5 -39.5 q-55 0 -95 39.5t-40 93.5z" />
<glyph unicode="&#x408;" horiz-adv-x="681" d="M29 -229q44 12 76 35t51 54.5t30.5 72.5t15.5 88.5t5.5 102t-0.5 113.5v66v1092q140 -11 153 -11q14 0 154 11v-1055v-47.5v-52.5t-0.5 -49t-2.5 -53.5t-5 -48t-7.5 -51t-11 -45t-16 -46t-20.5 -39.5q-121 -202 -392 -234z" />
<glyph unicode="&#x409;" horiz-adv-x="1857" d="M33 -6q13 31 82.5 193t90 210t79 186.5t87.5 211.5t75.5 188.5t83.5 213.5t73 198h578v-604h196q215 0 327 -87.5t112 -259.5q0 -444 -531 -444h-412v1241q-40 6 -88 6q-40 0 -81 -6q-248 -593 -341 -841q-79 -211 -141 -406q-49 6 -96 6t-94 -6zM1182 115q92 2 135 14 q94 26 138 101t44 178q0 120 -55 195t-135 75h-127v-563z" />
<glyph unicode="&#x40a;" horiz-adv-x="1970" d="M156 -8v1403q8 -1 65.5 -7t87.5 -6t88 6t66 7v-555q165 -11 262 -11t262 11v563q16 -1 70 -4.5t84 -3.5q29 0 82.5 3.5t70.5 4.5v-610h197q215 0 326.5 -88t111.5 -261q0 -444 -530 -444h-412v676q-180 8 -262 8t-262 -8v-684q-17 1 -71 4.5t-83 3.5t-82.5 -3.5 t-70.5 -4.5zM1294 115q93 2 136 14q94 26 138 101t44 178q0 120 -55.5 193t-135.5 73h-127v-559z" />
<glyph unicode="&#x40b;" horiz-adv-x="1669" d="M41 1221q10 73 10 88q0 13 -10 86h1055q-1 -5 -7 -37t-6 -49q0 -18 6 -51t7 -37q-242 28 -367 28v-514q179 99 393 99q89 0 166.5 -20.5t138.5 -60t96.5 -104.5t35.5 -147v-512q-127 10 -154 10t-154 -10v471q0 100 -60 149t-161 49q-141 0 -301 -88v-581q-21 1 -74 5.5 t-80 4.5q-28 0 -80.5 -4.5t-72.5 -5.5v1259q-169 0 -381 -28z" />
<glyph unicode="&#x40c;" horiz-adv-x="1251" d="M156 -10v1405q140 -11 153 -11q14 0 154 11v-641q295 342 532 641q102 -11 111 -11q6 0 108 11v-17l-335 -352q-25 -27 -90 -100t-105 -115l551 -793v-28q-127 10 -154 10q-25 0 -153 -10l-465 651v-651q-127 10 -154 10q-25 0 -153 -10zM465 1528l264 305q37 42 63 58 t72 16q38 0 64 -26t26 -64q0 -19 -5 -34t-20.5 -30t-21.5 -20.5t-31.5 -21t-27.5 -17.5l-268 -166h-115z" />
<glyph unicode="&#x40e;" horiz-adv-x="1366" d="M37 1395q10 -1 79 -7t105 -6t106 6t79 7q30 -62 196.5 -348.5t196.5 -344.5q23 35 56 97.5t76 154.5t70.5 152.5t74.5 166.5t54 122q50 -6 101 -6q45 0 98 6q-130 -231 -374 -718.5t-320 -684.5q-4 0 -36 4t-50 4q-15 0 -45.5 -3t-42.5 -3q26 46 72.5 139t80.5 163l33 69 q-56 120 -172.5 313.5t-248 403.5t-189.5 313zM432 1702l66 35q85 -129 264 -129q181 0 260 129l65 -35q-40 -97 -124.5 -156t-202.5 -59q-119 0 -202.5 58.5t-125.5 156.5z" />
<glyph unicode="&#x40f;" horiz-adv-x="1552" d="M156 0v1395q90 -11 153 -11q19 0 154 11v-1241q86 -7 315 -7q226 0 312 7v1241q135 -11 151 -11q21 0 156 11v-1395h-504v-154q-65 7 -115 7q-46 0 -114 -7v154h-508z" />
<glyph unicode="&#x410;" horiz-adv-x="1327" d="M6 -6l586 1419q40 -6 78 -6t78 6l571 -1423q-147 10 -176 10t-176 -10q-87 280 -146 428h-477q-17 -51 -49 -139.5t-54.5 -155t-39.5 -129.5q-11 1 -30.5 2.5t-35.5 2.5t-31 1t-31 -1t-36 -2.5t-31 -2.5zM399 543h375l-182 477z" />
<glyph unicode="&#x411;" horiz-adv-x="1212" d="M156 -2v1395h905q-10 -48 -10 -88t10 -88q-215 28 -598 28v-454h217q216 0 332 -88.5t116 -260.5q0 -444 -540 -444h-432zM463 113q112 2 155 14q96 27 144.5 102.5t48.5 176.5q0 119 -59.5 192.5t-141.5 73.5h-147v-559z" />
<glyph unicode="&#x412;" horiz-adv-x="1212" d="M156 0v1395h528q83 0 152 -15.5t128.5 -49t93.5 -96.5t34 -149q0 -70 -27.5 -128.5t-75.5 -98.5t-107 -65t-126 -35v-19q51 -5 97.5 -16t97.5 -36t88 -61t61 -94t24 -131q0 -82 -28.5 -150t-76 -114t-112 -77.5t-134 -45.5t-144.5 -14h-473zM463 119h102q92 0 167 74 t75 194q0 164 -87 231.5t-257 55.5v-555zM463 793q7 0 36 -0.5t37.5 0t32.5 2t35.5 5t30.5 9t33.5 14.5t29.5 21q88 74 88 213q0 109 -58 168t-161 59q-49 0 -104 -8v-483z" />
<glyph unicode="&#x413;" horiz-adv-x="985" d="M160 -10v1405h784q-10 -73 -10 -88t10 -88q-250 28 -477 28v-1257q-123 10 -152 10q-27 0 -155 -10z" />
<glyph unicode="&#x414;" horiz-adv-x="1439" d="M41 -92q10 61 10 131q0 53 -10 108h88q236 541 518 1258q40 -6 78 -6q37 0 78 6l508 -1258h88q-13 -54 -13 -108q0 -58 13 -131h-31q-26 31 -65 51t-90 28t-89 10.5t-92 2.5h-610q-66 0 -102 -1.5t-90.5 -9.5t-93 -28t-64.5 -53h-31zM303 154q137 -7 375 -7q213 0 295 7 q-34 99 -77 215t-71 188t-90.5 231.5t-87.5 223.5q-260 -612 -344 -858z" />
<glyph unicode="&#x415;" horiz-adv-x="1024" d="M160 0v1395h780q-10 -73 -10 -88t10 -88q-252 32 -473 28v-440h213q115 0 252 18q-10 -73 -10 -88t10 -88q-144 19 -252 19h-213v-521q266 3 473 29q-10 -73 -10 -88q0 -16 10 -88h-780z" />
<glyph unicode="&#x416;" horiz-adv-x="1855" d="M16 -10v28l545 793q-37 39 -95.5 107.5t-94.5 107.5l-334 352v17q102 -11 108 -11q9 0 111 11q28 -35 122.5 -155t138 -174.5t118.5 -146t139 -165.5v641q65 -11 154 -11q86 0 153 11v-641q64 74 139 165.5t118.5 146t138 174.5t122.5 155q102 -11 111 -11q7 0 109 11 v-17q-207 -213 -334 -352q-29 -32 -90 -102t-101 -113l545 -793v-28q-128 10 -153 10q-26 0 -154 -10l-451 651v-651q-127 10 -153 10q-72 0 -154 -10v651l-450 -651q-128 10 -154 10t-154 -10z" />
<glyph unicode="&#x417;" horiz-adv-x="1097" d="M78 227l26 13q164 -154 328 -154q113 0 185.5 76.5t72.5 204.5q0 89 -22.5 149.5t-64 91.5t-88.5 43.5t-109 12.5q-61 0 -105 -5q12 80 0 154q50 -4 78 -4q140 0 204 73t64 197q0 105 -64 167.5t-157 62.5q-80 0 -155 -47t-126 -142h-32q-5 89 -25 221q187 91 404 91 q127 0 228.5 -33t167.5 -109t66 -186q0 -279 -325 -346q-3 -10 0 -19q60 -4 112.5 -16.5t102.5 -38.5t85.5 -63t57 -94t21.5 -128q0 -98 -45 -181t-120 -138t-173 -86t-205 -31q-196 0 -365 100z" />
<glyph unicode="&#x418;" horiz-adv-x="1552" d="M156 -10v1405q140 -11 153 -11q14 0 154 11v-961q178 188 396.5 462t381.5 505q76 -6 156 0v-1411q-127 10 -156 10q-23 0 -151 -10v971q-171 -194 -403 -483t-378 -488q-75 3 -153 0z" />
<glyph unicode="&#x419;" horiz-adv-x="1552" d="M156 -10v1405q140 -11 153 -11q14 0 154 11v-961q178 188 396.5 462t381.5 505q76 -6 156 0v-1411q-127 10 -156 10q-23 0 -151 -10v971q-171 -194 -403 -483t-378 -488q-75 3 -153 0zM449 1702l65 35q85 -129 264 -129q181 0 260 129l66 -35q-40 -97 -125 -156t-203 -59 q-119 0 -202 58.5t-125 156.5z" />
<glyph unicode="&#x41a;" horiz-adv-x="1251" d="M156 -10v1405q140 -11 153 -11q14 0 154 11v-641q295 342 532 641q102 -11 111 -11q6 0 108 11v-17l-335 -352q-25 -27 -90 -100t-105 -115l551 -793v-28q-127 10 -154 10q-25 0 -153 -10l-465 651v-651q-127 10 -154 10q-25 0 -153 -10z" />
<glyph unicode="&#x41b;" horiz-adv-x="1327" d="M6 -6q320 709 586 1411q8 -1 35 -7.5t43 -6.5t43 6.5t35 7.5l571 -1415q-24 1 -84.5 5.5t-93.5 4.5t-92.5 -4.5t-81.5 -5.5q-17 55 -34.5 108.5t-39.5 115.5t-36 103t-41.5 114t-39 104.5t-45 118t-42.5 110.5t-49 125.5t-48 122.5q-153 -360 -243 -591t-148 -427 q-93 6 -97 6q-15 0 -31 -1t-36 -2.5t-31 -2.5z" />
<glyph unicode="&#x41c;" horiz-adv-x="1820" d="M70 -10q77 430 209 1405q9 -1 26 -4.5t30.5 -5t26.5 -1.5q7 0 87 11q132 -290 471 -963q27 54 140.5 274t190 375.5t146.5 313.5q80 -11 86 -11q8 0 88 11q6 -56 29.5 -259t30.5 -267t26.5 -222t31 -241.5t28.5 -200t34 -215.5q-143 10 -170 10q-23 0 -166 -10 q-7 147 -20.5 299t-36.5 363.5t-31 291.5q-282 -566 -455 -944q-46 7 -77 0q-77 165 -244 504.5t-205 417.5q-79 -607 -86 -932q-82 10 -96 10q-12 0 -94 -10z" />
<glyph unicode="&#x41d;" horiz-adv-x="1552" d="M156 -10v1405q140 -11 153 -11q14 0 154 11v-555q286 -11 313 -11q28 0 314 11v555q140 -11 153 -11q14 0 154 11v-1405q-127 10 -154 10q-25 0 -153 -10v686q-260 10 -314 10q-53 0 -313 -10v-686q-127 10 -154 10q-25 0 -153 -10z" />
<glyph unicode="&#x41e;" horiz-adv-x="1705" d="M72 694q0 153 55 287.5t156.5 234.5t255 158t340.5 58q122 0 225.5 -24t179.5 -65t137 -98.5t100.5 -122t65.5 -137.5t37.5 -142.5t11.5 -140.5q1 -150 -55.5 -284t-158.5 -235t-256 -160.5t-337 -59.5q-227 0 -397 85t-265 251t-95 395zM412 635q0 -82 14.5 -159 t48 -149t82 -125t121.5 -84.5t162 -31.5q92 0 168 35.5t129 97t89 145t53 178.5t17 199q0 82 -15 160.5t-48.5 153t-82 130.5t-122 90t-162.5 34q-218 0 -336 -168t-118 -506z" />
<glyph unicode="&#x41f;" horiz-adv-x="1552" d="M156 -10v1405h1241v-1405q-20 1 -73 5.5t-83 4.5q-27 0 -78.5 -4.5t-72.5 -5.5v1251q-159 6 -314 6q-160 0 -313 -6v-1251q-20 1 -73 5.5t-81 4.5t-80.5 -4.5t-72.5 -5.5z" />
<glyph unicode="&#x420;" d="M156 -10v1405h503q215 0 327 -87t112 -259q0 -107 -31.5 -186t-85 -128t-136.5 -78t-173.5 -40t-208.5 -11v-616q-127 10 -154 10q-25 0 -153 -10zM463 719q92 4 135 14q94 26 138 101.5t44 177.5q0 121 -54.5 196.5t-135.5 75.5h-127v-565z" />
<glyph unicode="&#x421;" horiz-adv-x="1366" d="M68 653q0 157 42 286t116.5 219.5t177 153t223 91.5t256.5 29q104 0 217.5 -26.5t199.5 -74.5q-1 -4 -47 -211h-28q-58 84 -150.5 136.5t-189.5 52.5q-99 0 -180 -36.5t-135 -97.5t-91.5 -143t-54 -170t-16.5 -180q0 -269 128 -432.5t359 -163.5q94 0 195.5 43.5 t171.5 110.5l26 -13l-45 -176q-175 -88 -405 -88q-219 0 -393.5 84t-275.5 242t-101 364z" />
<glyph unicode="&#x422;" d="M41 1221q10 73 10 88q0 13 -10 86h1055q-11 -80 -11 -86q0 -8 11 -88q-242 28 -367 28v-1259q-127 10 -154 10q-25 0 -153 -10v1259q-169 0 -381 -28z" />
<glyph unicode="&#x423;" horiz-adv-x="1327" d="M16 1395q137 -13 209 -13q87 0 160 13q221 -448 399 -723q160 332 326 723q40 -6 94 -6q70 0 105 6q-194 -367 -258 -490t-173 -339t-160.5 -337t-92.5 -239q-33 10 -78 10t-107 -10l193 372q-52 94 -139 242t-142.5 240t-185 304t-150.5 247z" />
<glyph unicode="&#x424;" horiz-adv-x="1779" d="M51 715q0 249 178.5 395t507.5 174v111q80 -13 154 -13q70 0 153 13v-107q152 -8 272 -44t196.5 -89.5t126.5 -125.5t70.5 -147.5t21.5 -160.5q0 -248 -184.5 -415.5t-502.5 -196.5v-117q-94 8 -153 8q-52 0 -154 -8v112q-321 18 -503.5 172t-182.5 439zM391 664 q0 -83 19.5 -155.5t60 -134t108.5 -103t158 -54.5v954q-86 -15 -147 -47.5t-107.5 -90.5t-69 -149.5t-22.5 -219.5zM1044 223q171 37 259 182.5t88 350.5q0 165 -85.5 278t-261.5 142v-953z" />
<glyph unicode="&#x425;" horiz-adv-x="1251" d="M49 -6q258 361 443 647l-420 754q168 -11 182 -11t182 11q46 -98 140.5 -277.5t113.5 -218.5q39 61 143.5 231.5t165.5 264.5q49 -6 101 -6q50 0 102 6l-198 -279q-40 -56 -119 -169t-119 -169l27 -47q23 -42 78.5 -140.5t86 -153.5t76 -138.5t84.5 -158.5t76 -150 q-148 10 -178 10q-29 0 -176 -10q-37 74 -271 522l-188 -295q-55 -87 -127 -223q-3 0 -42 3t-60 3q-16 0 -33 -1t-37.5 -2.5t-32.5 -2.5z" />
<glyph unicode="&#x426;" horiz-adv-x="1552" d="M156 0v1395q97 -11 153 -11q68 0 154 11v-1241q86 -7 315 -7q226 0 312 7v1241q90 -11 151 -11q63 0 156 11v-1248h114q-12 -53 -12 -110q0 -47 12 -129h-30q-21 26 -54 44.5t-62.5 27.5t-75 14t-71.5 5.5t-73 0.5h-989z" />
<glyph unicode="&#x427;" horiz-adv-x="1439" d="M100 922v473q8 -1 66 -7t88 -6t88 6t66 7v-422q0 -128 72 -189t186 -61q78 0 160.5 26t150.5 70v576q10 -1 66 -7t85 -6q31 0 90.5 6.5t65.5 6.5v-1405q-128 10 -156 10t-151 -10v696q-209 -139 -440 -139q-188 0 -312.5 99.5t-124.5 275.5z" />
<glyph unicode="&#x428;" horiz-adv-x="1894" d="M158 0v1395q26 0 77 -4.5t76 -4.5q26 0 77.5 4.5t76.5 4.5v-1243q56 -5 164 -5q105 0 164 5v1243q25 0 75.5 -6.5t77.5 -6.5q26 0 77 6.5t77 6.5v-1243q56 -5 164 -5q102 0 163 5v1243q26 0 77 -4.5t75 -4.5q27 0 79 4.5t77 4.5v-1395h-1577z" />
<glyph unicode="&#x429;" horiz-adv-x="1894" d="M158 0v1397q25 0 76.5 -4t76.5 -4t77 4t77 4v-1243q72 -7 164 -7q102 0 164 7v1243q25 0 75.5 -6.5t77.5 -6.5q26 0 77 6.5t77 6.5v-1243q57 -7 164 -7q88 0 163 7v1243q26 0 77 -4t75 -4q27 0 79 4t77 4v-1250h114q-12 -53 -12 -110q0 -65 12 -129h-30q-21 26 -54 44.5 t-62.5 27.5t-75 14t-71.5 5.5t-73 0.5h-1325z" />
<glyph unicode="&#x42a;" horiz-adv-x="1214" d="M41 1221q10 31 10 88q0 55 -10 86h496v-602h196q215 0 326.5 -88t111.5 -261q0 -444 -530 -444h-412v1249q-99 0 -188 -28zM537 115q92 2 135 14q94 26 138 101t44 178q0 120 -55 193t-135 73h-127v-559z" />
<glyph unicode="&#x42b;" horiz-adv-x="1742" d="M156 0v1403q17 -1 70 -4.5t83 -3.5q29 0 83 3.5t71 4.5v-610h196q215 0 327 -88.5t112 -260.5q0 -444 -531 -444h-411zM463 115q92 2 135 14q94 26 138 101t44 178q0 120 -55 193t-135 73h-127v-559zM1280 -8v1403q8 -1 66 -7t88 -6t87 6t66 7v-1403q-17 1 -70.5 4.5 t-82.5 3.5t-83 -3.5t-71 -4.5z" />
<glyph unicode="&#x42c;" d="M156 0v1403q17 -1 70 -4.5t83 -3.5q29 0 83 3.5t71 4.5v-610h196q215 0 327 -88.5t112 -260.5q0 -444 -531 -444h-411zM463 115q92 2 135 14q94 26 138 101t44 178q0 120 -55 193t-135 73h-127v-559z" />
<glyph unicode="&#x42d;" horiz-adv-x="1366" d="M78 227l26 13q71 -68 173.5 -111t199.5 -43q95 0 174 33t133 88t92.5 130t57 157.5t22.5 171.5h-1h-1h-1h-1h-1h-1h-1h-1h-1h-1h-1h-1h-1h-1h-1h-1h-1h-1h-1h-1h-1h-1h-1h-1h-1h-1h-1h-1h-1h-1h-1h-1h-1h-1h-1h-1h-1h-1h-1h-1h-1h-1h-1h-1h-1h-1h-1h-1h-1h-1h-1h-1h-1h-1 h-1h-1h-1h-1h-1h-1h-1h-1h-1h-1h-1h-1h-1h-1h-1h-1h-1h-1h-1h-1h-1h-1h-1h-1h-1h-1h-1h-1h-1h-1h-1h-1h-1h-1h-2h-1h-1h-1h-1h-1h-1h-1h-1h-1h-2h-1h-1h-1h-1h-1h-1h-2h-1h-1h-1h-1h-1h-2h-1h-1h-1h-1h-2h-1h-1h-1h-1h-2h-1h-1h-1h-2h-1h-1h-1h-2h-1h-1h-1h-2h-1h-1h-1h-2 h-1h-1h-2h-1h-1h-2h-1h-1h-2h-1h-1h-1h-2h-1h-1h-2h-1h-2h-1h-1h-2h-1h-1h-2h-1h-2h-1h-1h-2h-1h-1h-2h-1h-2h-1h-2h-1h-1h-2h-1h-2h-1h-2h-1h-1h-2h-1h-2h-1h-2h-1h-2h-1h-2h-1h-2h-1h-2h-1h-2h-1h-2h-1h-2h-1h-2h-1h-2h-1h-2h-1h-2h-1h-2h-1h-2h-1h-2h-2h-1h-2h-1h-2h-1 h-2h-1h-2h-2h-1h-2h-1h-2h-2h-1h-2h-1h-2h-2h-1h-2h-2h-1h-2h-1h-2h-2h-1h-2h-2h-1h-2h-2h-1h-2h-2h-1h-2h-2h-1h-2h-2h-1h-2h-2h-1h-2h-2h-1h-2h-2h-2h-1h-2h-2h-1h-2h-2h-2h-1h-2h-2h-2h-1h-2h-2h-2h-1h-2h-2h-2h-1h-2h-2h-2h-2h-1h-2h-2h-2h-1h-2h-2h-2h-2h-1h-2h-2h-2 h-2h-2h-1h-2h-2h-2h-2h-2h-1h-2h-2h-2h-2h-2h-2h-1h-2h-2h-2h-2h-2h-2h-2h-1h-9q-109 0 -191 -15q10 48 10 86q0 40 -10 82q100 -14 191 -14h462q-10 104 -41.5 189.5t-77 143t-103 97t-118.5 57t-125 17.5q-110 0 -204.5 -51t-143.5 -138h-28q-5 89 -25 221 q89 44 201.5 67.5t216.5 23.5q234 0 413 -83t279 -240t100 -368q0 -192 -62.5 -342.5t-172 -244.5t-251 -142.5t-306.5 -48.5q-120 0 -213 23.5t-193 76.5z" />
<glyph unicode="&#x42e;" horiz-adv-x="2158" d="M156 -8v1403q26 0 76.5 -6.5t76.5 -6.5q25 0 77 6.5t77 6.5v-566q75 -3 149 0q21 129 81.5 238.5t155 191t228 127.5t291.5 46q160 0 287 -46t206.5 -119t131.5 -171.5t73 -195.5t21 -198q1 -150 -52.5 -284t-150 -235t-243 -160.5t-320.5 -59.5q-320 0 -513 186 t-202 517q-67 3 -143 0v-674q-26 0 -77.5 4t-76.5 4t-76 -4t-77 -4zM940 635q0 -105 22.5 -199.5t67.5 -174.5t123 -127.5t178 -47.5q103 0 185 54t131.5 146t75.5 208t26 247q0 82 -13.5 161t-44.5 153.5t-75.5 130.5t-111.5 89.5t-148 33.5q-199 0 -307.5 -168 t-108.5 -506z" />
<glyph unicode="&#x42f;" horiz-adv-x="1251" d="M25 -8q313 450 446 690q-147 19 -233 108t-86 236q0 199 178 305q104 64 332 64h436v-1403q-17 1 -71 4.5t-83 3.5t-82.5 -3.5t-70.5 -4.5v653h-35q-25 -48 -78 -150.5t-79 -151.5t-80 -145t-120 -206q-20 1 -84.5 4.5t-99.5 3.5q-37 0 -105.5 -3.5t-84.5 -4.5zM469 1010 q0 -320 322 -265v537h-74q-133 0 -190.5 -65.5t-57.5 -206.5z" />
<glyph unicode="&#x430;" horiz-adv-x="1024" d="M68 242q0 58 15 101.5t41.5 75t75 57t103 43.5t137.5 38q104 24 150 53q31 29 31 80q0 72 -61 126t-134 54q-88 0 -163 -45.5t-87 -81.5h-14l-27 121q69 66 172.5 101.5t206.5 35.5q54 0 106.5 -8.5t104 -28.5t90 -50.5t62.5 -78t24 -106.5v-561q0 -56 23 -77t84 -17v-47 q-119 -56 -187 -56q-70 0 -122.5 40t-77.5 110q-39 -69 -111.5 -109.5t-151.5 -40.5q-130 0 -210 70.5t-80 200.5zM352 266q0 -41 9 -75.5t35.5 -60.5t66.5 -26q149 0 158 222v198q-12 -5 -57.5 -19t-82.5 -30t-63 -37q-66 -52 -66 -172z" />
<glyph unicode="&#x431;" horiz-adv-x="1175" d="M76 465q0 419 102 626q78 159 246 256q125 73 401 158l136 41l34 -233q-23 -20 -78.5 -38.5t-122 -36t-143.5 -40t-150.5 -56t-136 -77.5t-105.5 -111.5t-54 -150.5q62 86 175.5 142t231.5 56q219 0 361.5 -135t142.5 -356q0 -236 -144 -387.5t-380 -151.5 q-230 0 -373 134.5t-143 359.5zM379 471q0 -45 5 -93t19 -106.5t36.5 -103t62 -75t90.5 -30.5q57 0 101 42.5t69.5 114t38 154t12.5 171.5q0 102 -22.5 183.5t-70.5 132t-114 50.5q-80 0 -132 -60.5t-73.5 -156t-21.5 -223.5z" />
<glyph unicode="&#x432;" horiz-adv-x="1024" d="M115 0v983h452q69 0 127.5 -11t108 -35t78 -68t28.5 -105q0 -97 -71 -157.5t-179 -71.5v-15q38 -3 74.5 -10.5t78 -25t72 -42.5t50.5 -66t20 -93q0 -95 -63 -161t-154 -94t-198 -28h-424zM397 106h80q72 0 130.5 48.5t58.5 126.5q0 105 -68.5 148.5t-200.5 35.5v-359z M397 569h25.5h27t24 0.5t26 3t22.5 6t24 9.5t21 14q62 48 62 133q0 67 -41 104.5t-111 37.5q-7 0 -80 -5v-303z" />
<glyph unicode="&#x433;" horiz-adv-x="757" d="M115 -10v993h633q-11 -33 -11 -68q0 -38 11 -71q-141 20 -351 20v-874q-118 10 -141 10q-24 0 -141 -10z" />
<glyph unicode="&#x434;" horiz-adv-x="1024" d="M10 -80q10 46 10 111q0 46 -10 88h76q205 438 371 868q30 -6 69 -6q36 0 70 6q150 -411 346 -868h72q-10 -42 -10 -88q0 -62 10 -111h-21q-48 54 -123 67t-247 13h-205q-186 0 -262 -12.5t-127 -67.5h-19zM240 127q152 -8 243 -8q99 0 154 8q-56 187 -191 522 q-116 -266 -206 -522z" />
<glyph unicode="&#x435;" horiz-adv-x="1024" d="M68 510q0 220 129.5 355.5t349.5 135.5q430 0 430 -516h-606q-6 -167 71.5 -274t233.5 -107q61 0 125.5 26t113.5 67l23 -19l-43 -115q-61 -43 -140 -67.5t-153 -24.5q-253 0 -393.5 143.5t-140.5 395.5zM371 584h323q0 48 -6 98t-20.5 105t-45 89.5t-73.5 34.5 q-36 0 -65 -16t-47.5 -45t-31.5 -61t-20 -72t-10 -70.5t-4 -62.5z" />
<glyph unicode="&#x436;" horiz-adv-x="1517" d="M10 6q101 180 201 340l166 260q-48 56 -167.5 173.5t-176.5 189.5v14q45 -10 86 -10q46 0 88 10q21 -25 77 -89.5t83.5 -96t72 -82t83 -92t77.5 -80.5l18 2v438q113 -10 142 -10q42 0 139 10v-438q0 -2 1 -3t3.5 -1t4.5 0.5t5 1t5 0.5q39 39 77.5 80.5t83 92t72 82 t83.5 96t77 89.5q45 -10 88 -10q41 0 86 10v-14q-57 -72 -176.5 -189.5t-167.5 -173.5l166 -260q90 -144 200 -340v-16q-123 10 -155 10q-34 0 -156 -10q-138 257 -240 409q-1 2 -6 10t-7 11.5t-6.5 10.5t-8 10.5t-8.5 9t-10 9t-11 5.5v-475q-68 10 -139 10q-64 0 -142 -10 v475q-6 -2 -11 -5.5t-10 -9t-8.5 -9t-8 -10.5t-6.5 -10.5t-7 -11.5t-6 -10q-97 -144 -239 -409q-122 10 -156 10q-28 0 -156 -10v16z" />
<glyph unicode="&#x437;" horiz-adv-x="872" d="M57 172l35 29q41 -51 106 -78t132 -27q98 0 149 51.5t51 124.5q0 74 -49.5 129.5t-132.5 55.5q-36 0 -90 -4q4 59 0 114q18 -2 57 -2q84 0 131.5 56t47.5 131q0 78 -38 118.5t-96 40.5q-67 0 -125.5 -51t-76.5 -139h-54l-34 213q56 30 149.5 48.5t190.5 18.5 q73 0 135 -11.5t115 -37t83.5 -71t30.5 -107.5q0 -104 -70.5 -167.5t-179.5 -76.5v-14q48 -3 92 -16t88 -40t70.5 -77.5t26.5 -118.5q0 -60 -23 -109.5t-61.5 -83t-91 -56.5t-109 -33.5t-117.5 -10.5q-96 0 -183 27t-134 72z" />
<glyph unicode="&#x438;" d="M115 -10v993q118 -10 141 -10q28 0 141 10v-608q268 315 488 612q85 -7 139 0v-997q-17 1 -66 5.5t-75 4.5q-25 0 -142 -10v618q-258 -288 -489 -618q-68 6 -137 0z" />
<glyph unicode="&#x439;" d="M115 -10v993q118 -10 141 -10q28 0 141 10v-608q268 315 488 612q85 -7 139 0v-997q-17 1 -66 5.5t-75 4.5q-25 0 -142 -10v618q-258 -288 -489 -618q-68 6 -137 0zM242 1290l65 35q85 -129 264 -129q181 0 260 129l66 -35q-40 -97 -125 -156t-203 -59q-119 0 -202 58.5 t-125 156.5z" />
<glyph unicode="&#x43a;" horiz-adv-x="1024" d="M115 -10v993q78 -10 141 -10t141 10v-438q5 -5 19 -2q39 39 77.5 80.5t83 92t72 82t83.5 96t77 89.5q9 -1 39.5 -4.5t48.5 -3.5q17 0 46.5 3.5t39.5 4.5v-12q-57 -72 -176.5 -190.5t-167.5 -174.5l166 -260q89 -142 201 -342v-14q-20 1 -74.5 5.5t-81.5 4.5 q-30 0 -83 -4.5t-73 -5.5q-142 265 -239 409q-27 44 -58 66v-475q-19 1 -67.5 5.5t-73.5 4.5q-26 0 -74 -4.5t-67 -5.5z" />
<glyph unicode="&#x43b;" horiz-adv-x="985" d="M14 -6q259 564 424 993q34 -6 70 -6t70 6q206 -548 397 -997q-21 1 -75 5.5t-83 4.5q-30 0 -82.5 -4.5t-72.5 -5.5q-66 232 -234 659q-25 -67 -116 -291.5t-134 -363.5q-3 0 -35 3t-49 3q-12 0 -25.5 -1t-29.5 -2.5t-25 -2.5z" />
<glyph unicode="&#x43c;" horiz-adv-x="1325" d="M35 -10q76 400 164 993q40 -8 65 -8q34 0 70 8q39 -73 151 -291t185 -348q178 306 342 639q31 -8 65 -8q26 0 72 8q65 -565 139 -993q-14 1 -70 5.5t-83 4.5q-33 0 -146 -10q-10 177 -59 608q-126 -212 -312 -600q-44 4 -63 0q-144 312 -309 592q-53 -357 -58 -600 q-4 0 -32.5 3t-44.5 3q-33 0 -76 -6z" />
<glyph unicode="&#x43d;" d="M115 -10v993q118 -10 141 -10q28 0 141 10v-410h344v410q113 -10 142 -10t141 10v-993q-17 1 -66 5.5t-75 4.5q-25 0 -142 -10v459h-344v-459q-118 10 -141 10q-24 0 -141 -10z" />
<glyph unicode="&#x43e;" horiz-adv-x="1175" d="M68 465q0 243 141.5 389.5t374.5 146.5q236 0 380 -132.5t144 -358.5q0 -236 -144 -387.5t-380 -151.5q-230 0 -373 134.5t-143 359.5zM371 471q0 -45 5 -93t19 -106.5t36.5 -103t62 -75t90.5 -30.5q57 1 101 44t69.5 114t38 153t12.5 171q0 102 -22.5 183.5t-70.5 132 t-114 50.5q-80 0 -132 -60.5t-73.5 -156t-21.5 -223.5z" />
<glyph unicode="&#x43f;" d="M115 -10v993h909v-993q-17 1 -66 5.5t-75 4.5q-25 0 -142 -10v868q-153 6 -172 6q-13 0 -172 -6v-868q-19 1 -67 5.5t-74 4.5q-24 0 -141 -10z" />
<glyph unicode="&#x440;" d="M115 -530v1513q112 -10 137 -10q22 0 135 10v-180q36 93 108 145.5t173 52.5q107 0 187 -40.5t126 -111.5t68 -157t22 -188q0 -133 -34 -237.5t-92 -167.5t-130 -95.5t-153 -32.5q-172 0 -265 148v-649q-118 10 -141 10q-24 0 -141 -10zM391 471q0 -367 187 -367 q95 10 142.5 110t47.5 267q0 186 -41 286.5t-137 100.5q-51 0 -89 -29.5t-58.5 -72t-32.5 -101t-15.5 -103t-3.5 -91.5z" />
<glyph unicode="&#x441;" horiz-adv-x="985" d="M66 467q0 246 146.5 390t391.5 144q93 0 187.5 -22.5t162.5 -67.5l-77 -213h-48q-11 90 -67 151.5t-144 61.5q-67 0 -118 -40.5t-78 -104.5t-40 -130t-13 -130q0 -402 309 -402q59 0 119 26.5t96 70.5l35 -29l-51 -121q-38 -36 -124 -58t-151 -22q-243 0 -389.5 130.5 t-146.5 365.5z" />
<glyph unicode="&#x442;" horiz-adv-x="870" d="M10 844q10 30 10 71q0 30 -10 68h850q-10 -38 -10 -68q0 -38 10 -71q-163 20 -285 20v-874q-23 0 -70 5t-71 5t-71 -5t-70 -5v874q-126 0 -283 -20z" />
<glyph unicode="&#x443;" horiz-adv-x="985" d="M20 983q128 -10 156 -10t156 10q98 -278 246 -637l77 209q125 334 156 428q43 -6 84 -6t84 6l-207 -469q-250 -566 -426 -1044q-44 6 -86 6t-86 -6l260 528z" />
<glyph unicode="&#x444;" horiz-adv-x="1708" d="M72 469q0 107 21 196t58 150.5t86.5 104t106 62t117.5 19.5q163 0 252 -147v692q107 -10 143 -10q26 0 139 10v-723q36 84 102 131t156 47q102 0 178 -40.5t119.5 -111.5t64.5 -157t21 -188q0 -133 -32 -237.5t-87.5 -167.5t-124 -95.5t-145.5 -32.5q-167 0 -252 148 v-649q-112 10 -139 10q-30 0 -143 -10v684q-37 -86 -102 -134.5t-156 -48.5q-82 0 -147.5 27t-109 73t-72.5 110.5t-41.5 135.5t-12.5 152zM371 492q0 -388 164 -388q58 0 97 42t56 111t23 126t6 119q0 366 -170 366q-89 -10 -132.5 -109t-43.5 -267zM991 471 q0 -367 170 -367q89 10 132.5 109.5t43.5 267.5q0 91 -8 159t-26.5 120.5t-50.5 80t-78 27.5q-47 0 -82 -29.5t-53.5 -72t-30 -101t-14.5 -103t-3 -91.5z" />
<glyph unicode="&#x445;" horiz-adv-x="1024" d="M51 -6q263 363 326 452q-119 209 -318 537q137 -10 166 -10q31 0 168 10q124 -231 176 -321q118 165 213 321q47 -6 92 -6q46 0 93 6q-147 -176 -334 -422l112 -192q32 -55 109 -181t119 -198q-137 10 -168 10q-29 0 -166 -10l-197 356q-162 -246 -227 -352q-81 6 -82 6 q-16 0 -46.5 -3t-35.5 -3z" />
<glyph unicode="&#x446;" d="M115 0v983q59 -10 141 -10q95 0 141 10v-858q49 -6 172 -6q125 0 172 6v858q68 -10 142 -10q69 0 141 10v-864h104q-10 -34 -10 -88q0 -46 10 -111h-20q-49 55 -123 67.5t-248 12.5h-622z" />
<glyph unicode="&#x447;" horiz-adv-x="1062" d="M80 618v365q118 -10 141 -10t141 10v-334q0 -69 38.5 -102t99.5 -33q89 0 166 51v418q113 -10 141 -10q29 0 141 10v-993q-17 1 -66 5.5t-75 4.5q-24 0 -141 -10v471q-137 -92 -295 -92q-125 0 -208 66t-83 183z" />
<glyph unicode="&#x448;" horiz-adv-x="1478" d="M115 0v983q78 -10 141 -10q73 0 141 10v-860q58 -4 101 -4q46 0 100 4v860q75 -10 141 -10q74 0 142 10v-860q58 -4 100 -4t100 4v860q72 -10 142 -10q66 0 141 10v-983h-1249z" />
<glyph unicode="&#x449;" horiz-adv-x="1478" d="M115 0v983q78 -10 141 -10q66 0 141 10v-860q54 -4 101 -4q46 0 100 4v860q78 -10 141 -10q67 0 142 10v-860q62 -4 100 -4q46 0 100 4v860q68 -10 142 -10q66 0 141 10v-864h104q-10 -45 -10 -88q0 -65 10 -111h-20q-48 54 -123.5 67t-247.5 13h-962z" />
<glyph unicode="&#x44a;" horiz-adv-x="1060" d="M10 846q10 33 10 69q0 30 -10 68h461v-414h168q176 0 267 -63t91 -187q0 -319 -434 -319h-375v864q-54 0 -178 -18zM471 106q73 3 104 9q130 35 130 180q0 76 -39 123t-97 47h-98v-359z" />
<glyph unicode="&#x44b;" horiz-adv-x="1478" d="M115 0v983q82 -10 143 -10t139 10v-414h168q176 0 267.5 -63t91.5 -187q0 -319 -435 -319h-374zM397 106q74 3 105 9q67 18 98 66t31 114q0 77 -38.5 123.5t-96.5 46.5h-99v-359zM1081 -10v993q117 -10 142 -10q23 0 141 10v-993q-118 10 -141 10q-25 0 -142 -10z" />
<glyph unicode="&#x44c;" horiz-adv-x="985" d="M115 0v983q82 -10 143 -10t139 10v-414h168q176 0 267.5 -63t91.5 -187q0 -319 -435 -319h-374zM397 106q74 3 105 9q67 18 98 66t31 114q0 77 -38.5 123.5t-96.5 46.5h-99v-359z" />
<glyph unicode="&#x44d;" horiz-adv-x="985" d="M57 172l35 29q36 -44 96 -70.5t119 -26.5q289 0 309 351h-231q-55 0 -127 -11q12 69 0 134q75 -11 127 -11h229q-6 62 -22 119.5t-44 109.5t-75 83.5t-106 31.5q-82 0 -137.5 -54.5t-71.5 -135.5h-54l-34 213q131 67 313 67q243 0 390 -130.5t147 -364.5 q0 -246 -147 -390.5t-392 -144.5q-81 0 -164.5 25.5t-134.5 73.5z" />
<glyph unicode="&#x44e;" horiz-adv-x="1593" d="M115 -10v993q75 -10 141 -10t141 10v-410h148q29 197 159 312.5t324 115.5q224 0 361 -132.5t137 -358.5q0 -236 -137 -387.5t-361 -151.5q-214 0 -347.5 130t-139.5 348h-144v-459q-113 10 -141 10q-29 0 -141 -10zM836 471q0 -408 190 -408q57 0 97 37.5t61 107.5 t30 150.5t11 186.5q3 157 -45.5 261.5t-139.5 104.5q-204 0 -204 -440z" />
<glyph unicode="&#x44f;" horiz-adv-x="1024" d="M14 4q210 318 310 445q-43 13 -80.5 32.5t-74 50t-58 77t-21.5 102.5q0 140 104 205t283 65h432v-991q-103 10 -141 10q-28 0 -141 -10v418h-31q-32 -41 -97 -145.5t-114 -188.5l-49 -84q-108 10 -150 10q-34 0 -172 -10v14zM371 702q0 -89 60.5 -138.5t143.5 -49.5h52 v356h-52q-91 0 -147.5 -44t-56.5 -124z" />
<glyph unicode="&#x451;" horiz-adv-x="1024" d="M72 510q0 221 125 356t344 135q95 0 169 -25.5t123.5 -71t80.5 -110.5t42 -142t5 -167h-586q-3 -82 11 -149t46.5 -120t90 -82.5t136.5 -29.5q61 0 126 26t114 67l23 -19l-43 -115q-61 -43 -140 -67.5t-153 -24.5q-251 0 -382.5 142t-131.5 397zM164 1268q0 52 40 91.5 t93 39.5t93 -39t40 -92q0 -56 -39 -94.5t-94 -38.5q-52 0 -92.5 41t-40.5 92zM375 584h303q0 40 -2 77t-10.5 84.5t-22.5 82.5t-40 59t-60 24q-36 0 -64 -16t-45.5 -45.5t-29 -60.5t-17.5 -73t-8.5 -69.5t-3.5 -62.5zM594 1268q0 54 40.5 92.5t94.5 38.5q53 0 92 -39.5 t39 -91.5q0 -54 -38.5 -93.5t-92.5 -39.5q-55 0 -95 39.5t-40 93.5z" />
<glyph unicode="&#x452;" d="M12 1122q8 66 0 131h101v293q118 -10 141 -10q24 0 141 10v-293h312q-8 -65 0 -131h-312v-280q59 66 142 112.5t161 46.5q143 0 240 -94q52 -51 69 -112t17 -148v-663q0 -102 -34.5 -171t-119.5 -135q-109 -85 -268 -98l-22 70q36 11 63 26.5t44.5 37.5t28 45t16 56.5 t7.5 64t2 75.5v545q0 62 -3.5 108t-14.5 89.5t-29 71t-48.5 44t-72.5 16.5q-29 0 -53 -8.5t-41.5 -19.5t-31.5 -33.5t-22.5 -39.5t-14.5 -48t-9 -49.5t-4.5 -53.5t-1.5 -49v-48v-19v-471q-117 10 -141 10t-141 -10v1132h-101z" />
<glyph unicode="&#x453;" horiz-adv-x="757" d="M115 -10v993h633q-11 -33 -11 -68q0 -38 11 -71q-141 20 -351 20v-874q-118 10 -141 10q-24 0 -141 -10zM254 1116l264 305q37 42 63 58t72 16q38 0 64 -26t26 -64q0 -19 -5 -34t-20.5 -30t-21.5 -20.5t-31.5 -21t-27.5 -17.5l-268 -166h-115z" />
<glyph unicode="&#x454;" horiz-adv-x="985" d="M66 467q0 246 146.5 390t391.5 144q93 0 187.5 -22.5t162.5 -67.5l-69 -190h-56q-16 82 -72 136t-139 54q-59 0 -106 -31.5t-75 -83.5t-44 -109.5t-22 -119.5h229q52 0 127 11q-12 -65 0 -134q-72 11 -127 11h-231q20 -351 309 -351q59 0 119 26.5t96 70.5l35 -29 l-51 -121q-38 -36 -124 -58t-151 -22q-243 0 -389.5 130.5t-146.5 365.5z" />
<glyph unicode="&#x455;" horiz-adv-x="796" d="M63 55q22 121 31 195h51q28 -79 90.5 -126.5t143.5 -47.5q57 0 107.5 36.5t50.5 88.5q0 39 -26 68t-68 48.5t-92.5 38.5t-101 44.5t-92.5 59t-68 89t-26 127.5q0 150 103 237.5t250 87.5q79 0 158 -25t139 -71q-32 -109 -49 -180h-58q-12 68 -69 120t-125 52 q-62 0 -107 -30t-45 -89q0 -40 26.5 -68.5t69 -47t93.5 -36t102.5 -42t94 -58t69 -92t26.5 -135.5q0 -145 -106 -236.5t-289 -91.5q-159 0 -283 84z" />
<glyph unicode="&#x456;" horiz-adv-x="569" d="M123 1358q0 65 47.5 113.5t112.5 48.5q66 0 114.5 -48t48.5 -114t-48.5 -114t-114.5 -48q-65 0 -112.5 48.5t-47.5 113.5zM143 -10v993q117 -10 142 -10q23 0 141 10v-993q-118 10 -141 10q-25 0 -142 -10z" />
<glyph unicode="&#x457;" horiz-adv-x="569" d="M-63 1268q0 52 40.5 92.5t92.5 40.5q54 0 93.5 -39t39.5 -94q0 -56 -38.5 -94.5t-94.5 -38.5q-51 0 -92 41t-41 92zM143 -10v993q117 -10 142 -10q23 0 141 10v-993q-118 10 -141 10q-25 0 -142 -10zM367 1268q0 54 40.5 93.5t94.5 39.5q52 0 91.5 -40t39.5 -93 q0 -54 -38.5 -93.5t-92.5 -39.5q-55 0 -95 39.5t-40 93.5z" />
<glyph unicode="&#x458;" horiz-adv-x="569" d="M-16 -350q36 11 63 26.5t44.5 37.5t28 45t16 56.5t7.5 64t2 75.5v1028q117 -10 142 -10q23 0 141 10v-999q0 -102 -34.5 -171t-119.5 -135q-109 -85 -268 -98zM125 1354q0 70 44.5 118t111.5 48q74 0 121 -46.5t47 -119.5q0 -68 -49 -113t-119 -45q-64 0 -110 47t-46 111 z" />
<glyph unicode="&#x459;" horiz-adv-x="1478" d="M14 -6q233 507 424 989h451v-414h168q176 0 267 -63t91 -187q0 -319 -434 -319h-375v862q-37 4 -94 0q-65 -165 -139.5 -345t-112.5 -280t-82 -243q-3 0 -35 3t-49 3q-12 0 -25.5 -1t-29.5 -2.5t-25 -2.5zM889 106q73 3 104 9q67 18 98 66t31 114q0 77 -38.5 123.5 t-96.5 46.5h-98v-359z" />
<glyph unicode="&#x45a;" horiz-adv-x="1552" d="M115 -10v993q118 -10 141 -10q28 0 141 10v-410h285v410q113 -10 143 -10q38 0 140 10v-414h168q176 0 267 -63t91 -187q0 -319 -434 -319h-375v449h-285v-459q-118 10 -141 10q-24 0 -141 -10zM965 106q73 3 104 9q67 18 98 66t31 114q0 77 -38.5 123.5t-96.5 46.5h-98 v-359z" />
<glyph unicode="&#x45b;" d="M12 1122q8 66 0 131h101v293q118 -10 141 -10q24 0 141 10v-293h312q-8 -65 0 -131h-312v-280q59 66 142 112.5t161 46.5q143 0 240 -94q52 -51 69 -112t17 -148v-657q-118 10 -141 10q-25 0 -142 -10v510q0 62 -3.5 108t-14.5 89.5t-29 71t-48.5 44t-72.5 16.5 q-29 0 -53 -8.5t-41.5 -19.5t-31.5 -33.5t-22.5 -39.5t-14.5 -48t-9 -49.5t-4.5 -53.5t-1.5 -49v-48v-19v-471q-117 10 -141 10t-141 -10v1132h-101z" />
<glyph unicode="&#x45c;" horiz-adv-x="1024" d="M115 -10v993q78 -10 141 -10t141 10v-438q5 -5 19 -2q39 39 77.5 80.5t83 92t72 82t83.5 96t77 89.5q9 -1 39.5 -4.5t48.5 -3.5q17 0 46.5 3.5t39.5 4.5v-12q-57 -72 -176.5 -190.5t-167.5 -174.5l166 -260q89 -142 201 -342v-14q-20 1 -74.5 5.5t-81.5 4.5 q-30 0 -83 -4.5t-73 -5.5q-142 265 -239 409q-27 44 -58 66v-475q-19 1 -67.5 5.5t-73.5 4.5q-26 0 -74 -4.5t-67 -5.5zM350 1116l264 305q36 41 63 57.5t73 16.5q38 0 64 -26t26 -64q0 -19 -5.5 -34.5t-20 -29.5t-22 -20.5t-31.5 -21.5t-28 -17l-268 -166h-115z" />
<glyph unicode="&#x45e;" horiz-adv-x="1024" d="M39 981q14 -1 70 -4.5t86 -3.5q29 0 83.5 3.5t71.5 4.5q100 -280 246 -635l78 209q7 19 67 180t88 246q58 -4 84 -4t84 4l-206 -467q-258 -586 -426 -1044q-29 6 -86 6t-86 -6l260 528zM242 1290l65 35q85 -129 264 -129q181 0 260 129l66 -35q-40 -97 -125 -156 t-203 -59q-119 0 -202 58.5t-125 156.5z" />
<glyph unicode="&#x45f;" d="M115 0v983q59 -10 141 -10q95 0 141 10v-858q49 -6 172 -6q125 0 172 6v858q68 -10 142 -10q69 0 141 10v-983h-348v-125q-35 6 -107 6q-77 0 -106 -6v125h-348z" />
<glyph unicode="&#x490;" horiz-adv-x="985" d="M160 -10v1405h420q59 0 92.5 2t86.5 9.5t91.5 27.5t64.5 53h31q-12 -56 -12 -129q0 -58 12 -111h-479v-1257q-123 10 -152 10q-27 0 -155 -10z" />
<glyph unicode="&#x491;" horiz-adv-x="757" d="M115 -10v993h241q174 0 248 12.5t123 67.5h21q-11 -56 -11 -111q0 -42 11 -88h-351v-874q-113 10 -141 10q-24 0 -141 -10z" />
<glyph unicode="&#x2000;" horiz-adv-x="953" />
<glyph unicode="&#x2001;" horiz-adv-x="1907" />
<glyph unicode="&#x2002;" horiz-adv-x="953" />
<glyph unicode="&#x2003;" horiz-adv-x="1907" />
<glyph unicode="&#x2004;" horiz-adv-x="635" />
<glyph unicode="&#x2005;" horiz-adv-x="476" />
<glyph unicode="&#x2006;" horiz-adv-x="317" />
<glyph unicode="&#x2007;" horiz-adv-x="317" />
<glyph unicode="&#x2008;" horiz-adv-x="238" />
<glyph unicode="&#x2009;" horiz-adv-x="381" />
<glyph unicode="&#x200a;" horiz-adv-x="105" />
<glyph unicode="&#x2010;" horiz-adv-x="681" d="M86 346v219h512v-219h-512z" />
<glyph unicode="&#x2011;" horiz-adv-x="681" d="M86 346v219h512v-219h-512z" />
<glyph unicode="&#x2012;" horiz-adv-x="681" d="M86 346v219h512v-219h-512z" />
<glyph unicode="&#x2013;" horiz-adv-x="1024" d="M0 371v170h1024v-170h-1024z" />
<glyph unicode="&#x2014;" horiz-adv-x="2048" d="M0 371v170h2048v-170h-2048z" />
<glyph unicode="&#x2018;" horiz-adv-x="569" d="M78.5 852.5q-8.5 42.5 17.5 89.5q126 189 350 502l50 -23l-93 -379q-34 -139 -59 -198q-21 -50 -50 -72t-81 -22q-49 0 -87.5 30t-47 72.5z" />
<glyph unicode="&#x2019;" horiz-adv-x="569" d="M74 782l92 379q34 141 59 199q21 50 50 72t81 22q49 0 87.5 -30t47 -72.5t-17.5 -89.5q-126 -189 -350 -502z" />
<glyph unicode="&#x201a;" horiz-adv-x="569" d="M57 -365l93 379q34 141 59 199q21 50 50 72t81 22q77 0 117.5 -62.5t-0.5 -129.5q-113 -170 -351 -502z" />
<glyph unicode="&#x201c;" horiz-adv-x="1024" d="M93.5 852.5q-8.5 42.5 17.5 89.5q126 189 350 502l49 -23l-92 -379q-32 -134 -60 -198q-21 -50 -50 -72t-81 -22q-49 0 -87 30t-46.5 72.5zM517.5 852.5q-8.5 42.5 17.5 89.5q126 189 350 502l49 -23l-92 -379q-32 -134 -60 -198q-21 -50 -50 -72t-81 -22q-49 0 -87 30 t-46.5 72.5z" />
<glyph unicode="&#x201d;" horiz-adv-x="1024" d="M90 782l92 379q33 136 60 199q21 50 50 72t81 22q49 0 87 -30t46.5 -72.5t-17.5 -89.5q-126 -189 -350 -502zM514 782l92 379q33 136 60 199q21 50 50 72t81 22q49 0 87 -30t46.5 -72.5t-17.5 -89.5q-126 -189 -350 -502z" />
<glyph unicode="&#x201e;" horiz-adv-x="1024" d="M57 -365l93 379q34 141 59 199q21 50 50 72t81 22q77 0 117.5 -62.5t-0.5 -129.5q-113 -170 -351 -502zM481 -365l92 379q33 136 60 199q21 50 50 72t81 22q77 0 117.5 -62.5t-0.5 -129.5q-113 -170 -351 -502z" />
<glyph unicode="&#x2026;" horiz-adv-x="2048" d="M174 139q0 68 49.5 118t116.5 50q68 0 119 -50t51 -118q0 -70 -49.5 -119t-120.5 -49q-68 0 -117 50t-49 118zM856 139q0 68 49.5 118t116.5 50q68 0 119 -50t51 -118q0 -70 -49.5 -119t-120.5 -49q-68 0 -117 50t-49 118zM1538 139q0 68 49.5 118t116.5 50q68 0 119 -50 t51 -118q0 -70 -49.5 -119t-120.5 -49q-68 0 -117 50t-49 118z" />
<glyph unicode="&#x202f;" horiz-adv-x="381" />
<glyph unicode="&#x2039;" horiz-adv-x="681" d="M150 545q155 234 260 403q36 -34 133 -90q-124 -155 -230 -311q160 -220 232 -309q-58 -24 -135 -93q-27 41 -80 126t-96 150.5t-84 123.5z" />
<glyph unicode="&#x203a;" horiz-adv-x="681" d="M137 856q60 25 135 92q25 -39 79.5 -125t97 -151t83.5 -123q-145 -219 -260 -404q-39 37 -133 91q124 155 230 311q-160 220 -232 309z" />
<glyph unicode="&#x205f;" horiz-adv-x="476" />
<glyph unicode="&#x20ac;" d="M37 510l39 92h88q-2 18 -2 66q0 39 2 57h-127l39 92h94q32 275 156 415t374 140q238 0 334 -100l15 -189h-50q-15 96 -75 142.5t-156 46.5q-140 0 -208.5 -116t-86.5 -339h471l-39 -92h-434q-2 -18 -2 -61v-62h383l-39 -92h-340q12 -212 88.5 -325t208.5 -113 q88 0 150.5 45t78.5 139h50l-15 -180q-96 -103 -334 -103q-241 0 -368 135.5t-154 401.5h-141z" />
<glyph unicode="&#x2122;" horiz-adv-x="1996" d="M102 1292q0 2 3.5 21t3.5 30t-3.5 30.5t-3.5 21.5h625q-6 -48 -6 -52q0 -3 6 -51q-153 17 -217 17v-748q-3 0 -38 3t-52 3q-14 0 -29 -1t-34 -2.5t-29 -2.5v748q-92 0 -226 -17zM897 561q48 272 123 834q3 0 21.5 -3t29.5 -3q9 0 28.5 3t22.5 3q86 -190 279 -572 q8 15 64.5 125t79 154.5t64.5 132t74 160.5q2 0 22.5 -3t29.5 -3q7 0 16 1t20 2.5t17 2.5q70 -623 106 -834q-5 0 -42.5 3t-57.5 3q-16 0 -32 -1t-35.5 -2.5t-30.5 -2.5q-4 86 -13 180t-22 209.5t-19 175.5q-168 -336 -270 -559h-45q-46 98 -145.5 301t-120.5 246 q-46 -341 -51 -553q-7 1 -18.5 2.5t-21 2.5t-18.5 1q-1 0 -55 -6z" />
<glyph unicode="&#x25fc;" horiz-adv-x="983" d="M0 0v983h983v-983h-983z" />
</font>
</defs>
</svg>
